<svg version="1.1" id="Layer_1" xmlns="http://www.w3.org/2000/svg" xmlns:xlink="http://www.w3.org/1999/xlink" x="0px" y="0px"
	 width="100%" viewBox="0 0 512 238" enable-background="new 0 0 512 238" xml:space="preserve">
<path fill="#FEFEFE" opacity="1.000000" stroke="none" 
	d="
M353.000000,239.000000 
	C347.311951,239.000000 341.623932,239.000000 335.470856,238.610291 
	C335.434174,237.052155 335.743744,235.821686 336.314880,234.727829 
	C337.611053,232.245514 336.928436,231.033005 333.858154,230.928650 
	C333.375977,230.926849 333.183777,230.956665 332.744446,230.871277 
	C331.994476,230.546463 331.491669,230.336868 330.991974,229.810333 
	C330.899872,228.943939 330.804626,228.394470 330.709412,227.845001 
	C330.525269,227.851028 330.341125,227.857040 330.156982,227.863052 
	C330.106140,228.601135 330.055267,229.339233 329.672668,230.215332 
	C327.910828,230.512283 326.480682,230.671234 324.767181,230.630585 
	C323.322144,230.305359 322.160461,230.179718 320.953522,229.714294 
	C319.467316,227.388443 318.529175,227.742203 317.965515,230.191315 
	C317.931030,230.383255 317.887299,230.770798 317.438232,230.745789 
	C312.992249,230.509064 308.995300,230.297348 304.990936,229.697235 
	C303.722504,228.066849 302.461487,226.824860 301.197357,225.579773 
	C304.899567,220.010101 304.899567,220.009705 310.946442,220.005173 
	C312.773254,220.003799 314.713593,219.617859 316.396210,220.110565 
	C318.221710,220.645096 319.876923,221.899918 321.477081,223.024658 
	C322.951477,224.060989 324.254333,225.341400 325.632751,226.514313 
	C326.061615,224.922363 326.490479,223.330399 327.001495,221.433395 
	C332.425598,219.163345 333.319489,219.892593 334.821259,228.172073 
	C335.565887,226.965347 336.594421,225.256699 336.113525,224.339172 
	C333.770233,219.868149 331.041199,215.597565 328.378296,211.299667 
	C328.205963,211.021515 327.443085,211.109268 326.711792,211.019714 
	C326.468658,211.012634 326.001465,210.877213 325.968933,210.562103 
	C325.290955,209.165085 324.645477,208.083160 324.033813,206.657669 
	C324.711761,204.876083 325.355896,203.438049 326.392548,202.006973 
	C330.346344,203.493591 334.342010,203.223938 335.893188,199.969086 
	C337.060944,197.518646 336.411652,193.408325 335.057526,190.832687 
	C334.173706,189.151627 330.617310,188.313248 328.191071,188.160172 
	C325.654083,188.000107 321.890015,186.333160 320.942627,191.184723 
	C320.892151,191.395370 320.758362,191.807388 320.306152,191.769806 
	C310.318024,191.751648 300.782043,191.771042 291.179901,191.588043 
	C291.113708,191.385635 291.007416,190.971359 290.950500,190.629669 
	C289.070984,188.291382 288.258911,188.918869 288.112488,191.629028 
	C287.972992,192.269531 287.861694,192.629074 287.349854,193.013107 
	C286.299530,194.657913 285.103790,196.272217 285.085907,197.899490 
	C284.935150,211.598312 285.000000,225.299515 285.000000,239.000000 
	C283.611115,239.000000 282.222198,239.000000 280.416656,238.538040 
	C279.307068,224.337051 278.622375,210.597565 277.886200,196.860855 
	C277.861115,196.392426 277.319824,195.951645 277.019135,195.497986 
	C275.999725,203.123734 276.069641,210.548645 275.944061,217.970230 
	C275.917114,219.562210 275.182556,221.142212 274.773987,222.727737 
	C274.182678,222.600601 273.591339,222.473465 273.000031,222.346344 
	C273.000031,220.737106 273.000122,219.127884 273.000000,217.518646 
	C272.999390,209.519638 273.142273,201.515778 272.871735,193.525925 
	C272.820282,192.005539 271.146301,189.273895 270.199036,189.264313 
	C265.542816,189.217178 260.666656,185.532501 256.235657,189.717224 
	C255.936005,190.000244 256.300446,190.986389 256.300507,191.869522 
	C256.127136,192.391342 256.103149,192.696609 255.979370,193.197220 
	C255.484100,193.574814 255.182449,193.764511 254.524933,193.969406 
	C252.108231,195.655502 250.047409,197.326401 247.655487,198.997910 
	C246.882919,198.998993 246.441467,198.999496 246.040558,198.638092 
	C246.728989,196.853149 247.376831,195.430115 248.576492,192.794998 
	C246.209564,193.385025 244.087402,193.400665 243.866959,194.056000 
	C242.793213,197.248032 239.259140,200.105225 242.040436,204.334320 
	C242.694626,206.771683 243.323105,208.879013 243.879913,211.284866 
	C243.208633,212.389969 242.609024,213.196518 241.767792,214.137665 
	C241.387344,214.604813 241.248505,214.937378 241.099213,215.554260 
	C241.030640,216.213409 240.972534,216.588257 240.623245,217.118347 
	C239.509384,218.817154 238.686737,220.360687 237.896011,221.952118 
	C237.927933,222.000015 237.906784,221.886856 237.608200,222.011429 
	C236.452576,223.383499 235.595520,224.631012 234.510651,226.020508 
	C234.133469,226.664673 233.984131,227.166870 233.553314,227.843933 
	C232.475693,227.981476 231.351593,228.261627 230.947723,227.844498 
	C229.926071,226.789261 229.205673,225.434952 228.403961,224.175385 
	C222.173981,214.387497 215.763138,204.707260 209.817749,194.749191 
	C207.221786,190.401093 203.417694,190.821442 199.873413,191.589081 
	C198.785706,191.824661 197.884140,195.544220 197.867798,197.675827 
	C197.762115,211.449417 197.925110,225.225037 198.000000,239.000000 
	C132.434967,239.000000 66.869949,239.000000 1.000000,239.000000 
	C1.000000,210.646500 1.000000,182.291916 1.467468,153.498077 
	C7.951994,153.008743 13.969052,152.958664 20.387447,153.003174 
	C23.185818,153.374207 24.613005,152.746552 23.792778,149.494385 
	C23.839712,126.160774 23.812502,103.287575 23.861782,80.173447 
	C23.854210,79.276421 23.770144,78.620338 23.773136,77.603729 
	C23.935579,76.388687 24.010965,75.534172 24.116205,74.669357 
	C24.146059,74.659058 24.174110,74.721130 24.309189,75.008278 
	C25.369390,76.436234 26.180080,77.697647 27.236494,78.700089 
	C49.551849,99.875381 72.319778,120.598381 94.017448,142.387466 
	C102.363777,150.768951 110.800400,154.789581 122.374275,153.174591 
	C126.930756,152.538788 131.650146,153.070389 137.306335,153.070389 
	C118.770477,135.814224 101.235252,119.519829 83.738205,103.184555 
	C77.405228,97.272095 71.163651,91.261734 64.803833,85.012131 
	C64.412811,84.513535 64.098328,84.298843 63.561020,84.044189 
	C63.028660,83.857101 62.879036,83.612259 62.918098,82.877846 
	C61.748672,80.632828 60.336170,78.876663 59.436260,76.888474 
	C58.932846,75.776291 58.957150,73.218430 59.292175,73.116592 
	C63.557060,71.820282 62.392326,68.744484 62.083565,65.566315 
	C79.425346,49.151169 96.627769,33.037804 114.260612,16.944866 
	C116.127090,16.976686 117.563156,16.988075 119.413902,16.999447 
	C121.140289,16.608673 122.982613,16.627327 123.661095,15.747993 
	C125.469810,13.403805 126.855072,10.713598 128.234421,8.070028 
	C128.612534,7.345349 128.452576,6.296313 128.405441,5.403200 
	C128.327805,3.932431 128.140854,2.467432 128.000000,1.000000 
	C153.354233,1.000000 178.708450,1.000000 204.323029,1.279249 
	C202.434250,3.165250 200.285095,4.772001 198.001251,6.449411 
	C197.866547,6.520070 197.610336,6.356043 197.212372,6.267100 
	C195.536453,7.407058 194.258499,8.635959 192.819153,9.969620 
	C192.657776,10.074381 192.279678,10.145936 191.884277,10.102894 
	C188.250137,10.298852 186.028198,11.541953 186.283386,15.254134 
	C186.233414,15.227674 186.271957,15.333972 185.906082,15.242713 
	C179.377701,17.823145 175.719589,21.999739 177.087616,29.410713 
	C177.078232,29.619209 176.922882,30.006641 176.695435,30.188995 
	C176.382446,30.744156 176.296921,31.116964 176.215591,31.750830 
	C176.100067,32.337627 175.980331,32.663364 175.484131,33.041859 
	C174.075104,34.366726 172.213943,35.598866 172.150314,36.917725 
	C171.839417,43.361443 171.508621,49.884434 172.225510,56.262421 
	C172.565353,59.285995 174.788010,64.046288 176.932770,64.521507 
	C181.704895,65.578865 186.965225,64.432915 192.368439,64.130829 
	C193.396347,64.010284 194.082382,63.943886 195.144089,63.882912 
	C196.141052,62.403034 197.645065,59.959042 197.241180,59.587147 
	C194.502045,57.065033 192.492172,54.426464 192.528839,50.479359 
	C192.533432,49.985477 191.057968,49.477848 190.200745,48.653095 
	C190.169434,47.892281 190.205643,47.454967 190.588287,46.931622 
	C191.636108,42.902645 192.337479,38.959698 193.065979,34.718880 
	C193.438370,33.962868 193.783661,33.504734 194.486206,33.030998 
	C196.211212,32.197762 198.213882,31.708359 198.835922,30.505167 
	C201.409378,25.527527 206.270020,24.237114 210.852356,22.700121 
	C214.499069,21.476959 219.254272,19.299595 222.007019,20.642294 
	C226.425171,22.797316 230.812454,21.790518 235.013702,22.985680 
	C234.996811,22.995287 235.023865,22.964817 235.016037,23.355282 
	C235.160675,27.277185 237.647415,27.067423 240.050064,26.957851 
	C240.004761,26.995897 240.078918,26.903727 240.055023,27.281898 
	C241.432617,29.069096 242.834106,30.478117 244.428131,31.885372 
	C244.620651,31.883606 244.993073,31.981392 245.246002,32.269531 
	C252.318130,33.488674 261.205597,30.922171 264.058411,26.977781 
	C262.721649,26.977781 261.574310,26.977781 260.270660,26.680431 
	C260.008606,25.949242 259.902802,25.515402 260.090759,24.905945 
	C260.301483,23.216381 260.831696,21.135439 260.038788,20.277905 
	C253.501892,13.208055 247.759979,4.965528 237.098083,3.401864 
	C236.298492,3.284599 235.694763,1.831908 235.000000,1.000003 
	C268.020905,1.000000 301.041779,1.000000 334.571960,1.310555 
	C335.713470,2.648450 336.345673,3.675791 336.596497,4.844781 
	C334.059265,5.601186 331.625732,5.777302 329.808807,6.927460 
	C326.613983,8.949879 323.791931,11.562530 320.821411,13.937551 
	C306.007202,25.781937 303.354828,49.155910 315.139343,63.912594 
	C323.141388,73.932861 334.252563,79.125313 345.957855,82.959480 
	C358.471313,87.058365 371.359375,90.013466 383.873260,94.111259 
	C391.378357,96.568893 398.164642,100.406799 399.176788,109.779854 
	C400.105377,118.379112 397.492706,125.879814 390.117676,129.817871 
	C384.071014,133.046616 376.793030,134.834351 369.903137,135.427002 
	C357.954285,136.454803 346.569611,133.753586 336.680695,126.276802 
	C329.268890,120.672913 325.571411,112.968117 323.875336,104.265091 
	C316.626099,104.265091 309.692993,104.265091 302.786438,104.265091 
	C302.527924,104.983879 302.277802,105.429001 302.221008,105.897545 
	C302.141479,106.553368 302.132843,107.236328 302.219574,107.891029 
	C304.428741,124.569855 312.794647,137.685760 327.169922,145.905533 
	C350.015625,158.968735 374.413177,159.572342 398.415405,149.817902 
	C422.321625,140.102493 429.877472,108.858322 413.959747,88.883041 
	C407.319397,80.550034 397.741791,76.411476 387.948456,73.147438 
	C378.745392,70.080132 369.327850,67.656303 359.949402,64.608673 
	C355.773499,61.039562 352.713501,55.313553 345.969055,58.337692 
	C346.001709,58.334538 346.075958,58.323765 345.732666,58.210835 
	C344.796936,57.432808 344.204529,56.767708 344.277679,56.849850 
	C343.486755,57.244347 342.512177,57.730419 341.369110,58.216324 
	C341.200623,58.216156 340.998383,57.946548 340.849487,57.722687 
	C340.375549,57.370926 340.050568,57.243023 339.391541,57.065586 
	C326.890656,51.434040 327.137390,31.151987 341.421051,25.175905 
	C353.107788,20.286341 364.980621,19.261778 377.057251,24.292173 
	C379.059204,27.102018 381.030365,29.552055 383.000732,32.001045 
	C383.000000,32.000000 382.997559,31.998394 383.239807,32.274437 
	C385.895752,33.039688 388.309387,33.528896 390.916504,34.289406 
	C391.445099,35.361202 391.780304,36.161690 391.872681,37.115662 
	C392.049194,37.850597 392.468567,38.432049 393.062012,39.290131 
	C393.437897,40.377373 393.639740,41.187992 393.597870,42.284542 
	C393.847473,44.717598 394.340820,46.864723 395.047485,49.406158 
	C402.295654,49.800465 409.330444,49.800465 417.333771,49.800465 
	C415.792511,42.163261 414.373932,35.133976 413.007324,27.731234 
	C415.226532,22.983488 414.340698,19.567326 409.971191,17.129591 
	C409.203644,16.701389 408.645691,15.876687 408.030975,15.198790 
	C404.979340,11.833293 401.941071,8.455647 398.760010,4.929154 
	C398.080750,5.746313 397.505524,6.178729 397.304169,6.744247 
	C397.034668,7.501384 397.054718,8.361616 396.665985,9.093825 
	C395.917877,8.680901 395.454193,8.351727 395.020050,7.709110 
	C394.366394,5.263776 393.683197,3.131887 393.000000,0.999999 
	C432.950775,1.000000 472.901581,1.000000 513.000000,1.000000 
	C513.000000,79.354164 513.000000,157.708420 512.697144,236.363098 
	C511.979309,235.947495 511.510620,235.256897 511.157288,234.511612 
	C504.908783,221.331818 498.792999,208.086304 492.295837,195.030533 
	C491.424316,193.279251 488.663940,191.514832 486.741211,191.473328 
	C484.150513,191.417435 480.025116,192.280914 479.148376,194.040436 
	C471.763794,208.859970 464.970856,223.974304 458.000000,239.000000 
	C452.311951,239.000000 446.623932,239.000000 440.480591,238.531464 
	C440.031219,224.100021 439.895660,210.134705 440.130493,196.175629 
	C440.199585,192.070145 438.380890,191.612839 435.024078,191.672745 
	C431.809845,191.730103 429.773621,191.894836 429.850037,196.115646 
	C430.108856,210.406647 429.980438,224.704666 430.000000,239.000000 
	C419.312439,239.000000 408.624878,239.000000 397.537262,238.639252 
	C398.379883,236.763306 399.622559,235.248108 401.004608,233.496796 
	C401.710175,232.813507 402.276428,232.366318 403.227905,231.944977 
	C408.434265,228.910187 409.731232,224.377594 409.018219,218.559479 
	C408.984528,215.414444 408.959686,212.719055 409.250793,209.868637 
	C411.544739,205.726501 406.582031,197.467239 401.639893,196.844391 
	C398.560547,195.382263 395.777588,194.090195 392.836090,192.601562 
	C392.359528,192.314026 392.041504,192.223083 391.535095,192.113297 
	C391.346710,192.094467 391.008636,191.924026 390.996918,191.552338 
	C389.351562,189.855301 387.717926,188.529938 387.126709,188.050278 
	C384.121735,188.936707 382.322327,189.890747 380.502808,189.930817 
	C372.714264,190.102280 364.916718,189.892914 357.130341,190.108383 
	C355.744263,190.146759 353.227966,191.525162 353.217285,192.311691 
	C353.142059,197.861969 353.585297,203.419281 353.917450,209.439392 
	C353.937256,214.610962 353.902618,219.317505 353.600677,224.333618 
	C353.222229,229.428787 353.111115,234.214401 353.000000,239.000000 
M247.529526,139.478806 
	C247.529526,139.478806 247.536621,139.582504 247.897385,140.111938 
	C249.910583,141.773773 251.923767,143.435608 253.984161,145.013672 
	C253.984161,145.013672 253.902145,145.063858 254.164017,145.692932 
	C258.715912,150.703568 264.123535,153.352356 271.082184,152.048447 
	C272.676697,151.749664 274.356293,151.904755 276.824890,152.004730 
	C278.223297,151.948288 279.621735,151.891846 281.849426,152.011444 
	C283.612061,152.011444 285.374664,152.011444 287.137299,152.011444 
	C287.208862,151.570145 287.280426,151.128845 287.351990,150.687561 
	C285.610657,149.348114 283.869293,148.008652 281.838135,146.084702 
	C271.927338,137.240021 262.016510,128.395355 253.200027,120.527275 
	C258.040405,104.812958 262.656738,89.825935 267.464691,74.216904 
	C259.924042,74.216904 254.008347,74.216904 248.509827,74.216904 
	C245.924149,82.696579 243.438858,90.847015 240.248856,99.075531 
	C238.321594,98.941185 236.394333,98.806839 234.467056,98.672493 
	C234.468964,98.310654 234.470856,97.948822 234.472763,97.586983 
	C232.928040,98.081131 231.383331,98.575279 229.206940,98.863503 
	C223.977951,94.243256 218.656464,89.722862 213.538589,84.982651 
	C201.706314,74.023514 201.726120,74.454353 186.180237,73.791710 
	C177.654129,73.428291 171.154114,76.793564 165.025635,81.644165 
	C161.534409,84.407433 158.315964,87.636269 155.459427,91.059898 
	C142.043488,107.139236 144.487122,132.845261 161.001236,145.567001 
	C175.389465,156.651062 192.064636,157.461441 209.209442,154.472183 
	C222.457428,152.162354 233.173904,145.483124 241.550491,134.674973 
	C242.791107,135.571671 243.820160,136.315460 245.078857,137.622787 
	C245.861099,138.241348 246.643341,138.859924 247.529526,139.478806 
M264.483551,184.057388 
	C265.919495,184.367966 267.451508,185.140182 268.765839,184.866592 
	C270.247711,184.558151 271.533630,183.308289 272.904755,182.467880 
	C271.682190,181.313232 270.638763,179.765503 269.190765,179.105499 
	C267.460052,178.316681 265.380188,178.302795 263.457184,177.924728 
	C261.194550,177.479874 258.349945,175.509659 257.262421,179.155609 
	C256.160492,182.849930 259.481964,182.785675 261.763885,183.408722 
	C262.396393,183.581406 263.022247,183.778336 264.483551,184.057388 
M336.528809,210.353683 
	C335.180634,208.792679 333.832428,207.231674 332.484253,205.670670 
	C331.901398,206.386353 331.318542,207.102036 330.735687,207.817719 
	C332.488342,208.806168 334.240997,209.794617 336.528809,210.353683 
M267.539337,29.165743 
	C266.813416,30.156343 266.087494,31.146946 265.361572,32.137550 
	C266.078461,32.377106 266.795319,32.616665 267.512207,32.856224 
	C267.759766,31.700890 268.007355,30.545557 267.539337,29.165743 
M225.270767,28.095245 
	C225.768463,28.040508 226.266144,27.985773 226.763840,27.931036 
	C226.649338,27.485479 226.534821,27.039921 226.420303,26.594370 
	C225.995361,26.895878 225.570404,27.197384 225.270767,28.095245 
M334.433533,181.704453 
	C334.705353,181.989273 334.977142,182.274109 335.248993,182.558945 
	C335.366852,182.446243 335.593414,182.241760 335.586914,182.234055 
	C335.333252,181.933640 335.058350,181.651184 334.433533,181.704453 
M340.176666,54.758110 
	C340.120941,54.590679 340.065216,54.423244 340.009491,54.255810 
	C339.955566,54.424023 339.901611,54.592239 340.176666,54.758110 
M415.411346,28.483192 
	C415.411346,28.483192 415.522125,28.417191 415.411346,28.483192 
z"/>
<path fill="#062E25" opacity="1.000000" stroke="none" 
	d="
M392.115479,36.962173 
	C391.780304,36.161690 391.445099,35.361202 390.839844,33.970879 
	C387.038025,28.822887 382.862854,25.187017 377.026398,23.932365 
	C364.980621,19.261778 353.107788,20.286341 341.421051,25.175905 
	C327.137390,31.151987 326.890656,51.434040 339.507568,57.323708 
	C340.304504,57.736427 340.651459,57.841488 340.998383,57.946548 
	C340.998383,57.946548 341.200623,58.216156 341.603210,58.502228 
	C348.005432,60.841984 354.005066,62.895664 360.004700,64.949348 
	C369.327850,67.656303 378.745392,70.080132 387.948456,73.147438 
	C397.741791,76.411476 407.319397,80.550034 413.959747,88.883041 
	C429.877472,108.858322 422.321625,140.102493 398.415405,149.817902 
	C374.413177,159.572342 350.015625,158.968735 327.169922,145.905533 
	C312.794647,137.685760 304.428741,124.569855 302.219574,107.891029 
	C302.132843,107.236328 302.141479,106.553368 302.221008,105.897545 
	C302.277802,105.429001 302.527924,104.983879 302.786438,104.265091 
	C309.692993,104.265091 316.626099,104.265091 323.875336,104.265091 
	C325.571411,112.968117 329.268890,120.672913 336.680695,126.276802 
	C346.569611,133.753586 357.954285,136.454803 369.903137,135.427002 
	C376.793030,134.834351 384.071014,133.046616 390.117676,129.817871 
	C397.492706,125.879814 400.105377,118.379112 399.176788,109.779854 
	C398.164642,100.406799 391.378357,96.568893 383.873260,94.111259 
	C371.359375,90.013466 358.471313,87.058365 345.957855,82.959480 
	C334.252563,79.125313 323.141388,73.932861 315.139343,63.912594 
	C303.354828,49.155910 306.007202,25.781937 320.821411,13.937551 
	C323.791931,11.562530 326.613983,8.949879 329.808807,6.927460 
	C331.625732,5.777302 334.059265,5.601186 336.966888,4.796387 
	C342.479095,3.404229 347.239563,2.202116 352.000000,1.000001 
	C358.354401,1.000000 364.708801,1.000000 371.770691,1.324484 
	C379.982269,3.773498 387.486420,5.898028 394.990540,8.022556 
	C395.454193,8.351727 395.917877,8.680901 396.804321,9.397682 
	C404.415283,14.221480 408.917572,20.963692 412.955353,28.104694 
	C414.373932,35.133976 415.792511,42.163261 417.333771,49.800465 
	C409.330444,49.800465 402.295654,49.800465 395.134766,49.011444 
	C394.619598,46.147820 394.230591,44.073215 393.841583,41.998611 
	C393.639740,41.187992 393.437897,40.377373 393.109344,38.982666 
	C392.693573,37.919773 392.404510,37.440975 392.115479,36.962173 
z"/>
<path fill="#012E24" opacity="1.000000" stroke="none" 
	d="
M24.086351,74.679657 
	C24.010965,75.534172 23.935579,76.388687 23.411476,77.625839 
	C22.403753,78.625031 21.844749,79.241570 21.285744,79.858109 
	C22.118925,80.043533 22.952106,80.228958 23.785290,80.414383 
	C23.812502,103.287575 23.839712,126.160774 23.453846,149.504700 
	C22.022549,150.953156 21.004330,151.930878 19.986111,152.908585 
	C13.969052,152.958664 7.951994,153.008743 1.467468,153.029419 
	C1.000000,103.645775 1.000000,54.291542 1.468637,4.467521 
	C9.184374,3.997728 16.431475,3.997728 23.869602,3.997728 
	C23.869602,27.651169 23.869602,50.600121 23.910206,73.834244 
	C23.995991,74.306160 24.041172,74.492912 24.086351,74.679657 
z"/>
<path fill="#FCFEFE" opacity="1.000000" stroke="none" 
	d="
M23.869602,73.549072 
	C23.869602,50.600121 23.869602,27.651169 23.869602,3.997728 
	C16.431475,3.997728 9.184374,3.997728 1.468637,3.998864 
	C1.000000,3.003377 1.000000,2.006754 1.000000,1.005065 
	C43.020893,1.000000 85.041786,1.000000 127.531342,1.000000 
	C128.140854,2.467432 128.327805,3.932431 128.405441,5.403200 
	C128.452576,6.296313 128.612534,7.345349 128.234421,8.070028 
	C126.855072,10.713598 125.469810,13.403805 123.661095,15.747993 
	C122.982613,16.627327 121.140289,16.608673 119.518089,16.728382 
	C118.785210,15.262287 118.362823,14.067239 118.076233,12.568853 
	C120.880753,9.842574 123.549484,7.419632 126.218224,4.996691 
	C125.996368,4.507813 125.774513,4.018935 125.552666,3.530057 
	C116.164162,3.530057 106.774635,3.465577 97.388527,3.615224 
	C96.270126,3.633055 94.984276,4.626740 94.091858,5.493325 
	C87.863350,11.541516 81.733391,17.691000 75.543190,23.778873 
	C58.715664,40.328228 41.873920,56.863125 24.751057,73.482697 
	C24.266073,73.557457 24.067839,73.553261 23.869602,73.549072 
z"/>
<path fill="#A2BB6F" opacity="1.000000" stroke="none" 
	d="
M190.241867,47.017651 
	C190.205643,47.454967 190.169434,47.892281 190.118317,49.038445 
	C190.783646,52.767971 191.463837,55.788651 191.939941,59.110466 
	C190.783966,60.827797 189.832092,62.243988 188.559814,63.685215 
	C187.165802,63.748497 186.092224,63.786747 184.952881,63.459862 
	C183.430389,62.396946 181.985382,61.673134 180.513626,61.008568 
	C178.983826,60.317776 177.428146,59.684254 175.638702,58.730751 
	C172.851212,49.904064 173.916733,41.438526 175.860596,32.989105 
	C175.980331,32.663364 176.100067,32.337627 176.435242,31.559591 
	C176.741425,30.740412 176.832153,30.373528 176.922882,30.006641 
	C176.922882,30.006641 177.078232,29.619209 177.347473,29.175186 
	C180.501801,24.265432 183.386871,19.799698 186.271942,15.333969 
	C186.271957,15.333972 186.233414,15.227674 186.597321,15.199413 
	C188.734055,13.496082 190.506866,11.821013 192.279694,10.145941 
	C192.279678,10.145936 192.657776,10.074381 193.135544,9.886847 
	C194.945648,8.584888 196.278000,7.470465 197.610336,6.356042 
	C197.610336,6.356043 197.866547,6.520070 198.377808,6.406590 
	C202.934631,4.897832 206.980194,3.502556 211.491089,2.109930 
	C217.291214,2.104665 222.626038,2.096751 228.189331,2.309582 
	C228.945206,2.020217 229.472595,1.510108 230.000000,1.000000 
	C230.444443,1.000000 230.888901,1.000000 231.464722,1.354612 
	C234.166977,3.190627 236.667801,4.813550 239.321609,6.127463 
	C248.027481,10.437792 254.334076,17.293087 259.797028,25.081562 
	C259.902802,25.515402 260.008606,25.949242 259.969940,26.947384 
	C254.881363,29.001591 249.937210,30.491491 244.993073,31.981392 
	C244.993073,31.981392 244.620651,31.883606 244.335480,31.565636 
	C242.726501,29.799688 241.402710,28.351709 240.078918,26.903728 
	C240.078918,26.903727 240.004761,26.995897 239.909119,26.656452 
	C238.216934,25.199610 236.620407,24.082212 235.023865,22.964817 
	C235.023865,22.964817 234.996811,22.995287 234.869324,22.663078 
	C220.597824,13.400878 202.022354,18.302017 194.128967,33.046597 
	C193.783661,33.504734 193.438370,33.962868 192.791443,34.962410 
	C191.740494,39.341759 190.991180,43.179707 190.241867,47.017651 
z"/>
<path fill="#A3BB72" opacity="1.000000" stroke="none" 
	d="
M353.868011,224.024033 
	C353.902618,219.317505 353.937256,214.610962 353.996643,208.979706 
	C354.021423,202.803619 354.021423,197.552261 354.021423,191.924026 
	C366.859711,191.924026 378.934174,191.924026 391.008636,191.924026 
	C391.008636,191.924026 391.346710,192.094467 391.686157,192.323929 
	C392.348572,192.634964 392.671600,192.716537 392.994598,192.798126 
	C395.777588,194.090195 398.560547,195.382263 401.787292,197.154114 
	C404.465637,201.763794 406.700256,205.893738 408.934875,210.023682 
	C408.959686,212.719055 408.984528,215.414444 408.766632,218.818390 
	C406.630127,223.657684 404.736389,227.788406 402.842651,231.919144 
	C402.276428,232.366318 401.710175,232.813507 400.653900,233.592224 
	C396.775909,235.615845 393.387970,237.307938 390.000000,239.000000 
	C378.312439,239.000000 366.624878,239.000000 354.507202,238.535126 
	C354.007385,233.388184 353.937683,228.706100 353.868011,224.024033 
M375.501221,230.083466 
	C378.832703,230.041611 382.180054,230.192047 385.492493,229.919098 
	C393.125366,229.290115 398.423859,223.859497 398.982849,216.364426 
	C399.574951,208.425339 395.783813,202.179825 388.048126,200.967758 
	C380.311768,199.755569 372.334015,200.084259 364.331604,199.731750 
	C364.331604,210.373398 364.331604,219.952408 364.331604,230.084015 
	C367.937042,230.084015 371.225708,230.084015 375.501221,230.083466 
z"/>
<path fill="#A2BB6F" opacity="1.000000" stroke="none" 
	d="
M304.998352,230.085617 
	C308.995300,230.297348 312.992249,230.509064 317.687592,231.062531 
	C320.607513,231.212921 322.829041,231.021545 325.050568,230.830185 
	C326.480682,230.671234 327.910828,230.512283 329.916504,230.271637 
	C330.657684,230.169067 330.823273,230.148178 330.988861,230.127274 
	C331.491669,230.336868 331.994476,230.546463 332.831726,231.090454 
	C333.344604,231.696793 333.585327,231.892044 333.945251,232.378967 
	C333.973053,233.490723 333.943878,234.234085 333.567139,235.058472 
	C332.813019,236.426315 332.406494,237.713150 332.000000,239.000000 
	C331.250000,239.000000 330.500000,239.000000 329.221313,238.699158 
	C327.192749,236.948151 325.766785,235.951187 325.000000,239.000000 
	C323.933319,239.000000 322.866669,239.000000 321.310822,238.833084 
	C320.547760,238.777451 320.273895,238.888718 320.000000,239.000000 
	C309.979095,239.000000 299.958221,239.000000 289.472076,238.531403 
	C289.002625,224.887100 288.893036,211.709763 289.095490,198.537231 
	C289.130219,196.277817 290.495483,194.038849 291.246094,191.790436 
	C300.782043,191.771042 310.318024,191.751648 320.693695,191.970825 
	C325.639099,192.819885 329.744751,193.430344 333.906616,194.430328 
	C333.920380,195.866318 333.877930,196.912766 333.547668,198.012177 
	C332.826324,198.642654 332.392761,199.220154 331.498108,199.868546 
	C321.728027,199.946335 312.418396,199.901108 303.110474,200.006989 
	C301.385986,200.026611 299.668427,200.655426 297.631073,201.187622 
	C297.428345,204.760178 297.542175,208.148178 297.656036,211.536163 
	C299.769012,211.392242 301.881989,211.248322 304.253052,211.040283 
	C304.675842,210.910614 304.840576,210.845062 305.467468,210.844986 
	C310.946716,210.854614 315.963776,210.798752 321.393066,210.829773 
	C323.204010,210.903519 324.602753,210.890366 326.001465,210.877228 
	C326.001465,210.877213 326.468658,211.012634 326.778259,211.466064 
	C327.087891,214.038940 327.087891,216.158401 327.087891,218.865250 
	C318.813202,218.865250 310.910187,218.865250 302.908386,218.719666 
	C302.536896,218.677277 302.264252,218.780457 301.601807,218.923828 
	C300.171631,219.044464 299.131195,219.124893 297.878571,219.028000 
	C296.953827,220.889862 295.791901,222.907318 295.691864,224.976135 
	C295.628632,226.284332 297.149811,227.669144 297.983643,229.018188 
	C298.006958,229.016769 297.970184,229.046204 297.969238,229.417343 
	C298.661133,232.872009 300.198547,232.485428 302.307129,230.766876 
	C302.721832,230.786621 302.885559,230.822906 303.049316,231.126419 
	C303.163879,231.642136 303.278442,231.890640 303.392944,232.139130 
	C303.565887,231.702026 303.738800,231.264923 304.072083,230.676239 
	C304.491394,230.384674 304.746704,230.238327 304.998352,230.085617 
z"/>
<path fill="#A4BB74" opacity="1.000000" stroke="none" 
	d="
M458.428467,239.000000 
	C464.970856,223.974304 471.763794,208.859970 479.148376,194.040436 
	C480.025116,192.280914 484.150513,191.417435 486.741211,191.473328 
	C488.663940,191.514832 491.424316,193.279251 492.295837,195.030533 
	C498.792999,208.086304 504.908783,221.331818 511.157288,234.511612 
	C511.510620,235.256897 511.979309,235.947495 512.697144,236.831757 
	C512.543457,237.666656 512.121826,238.878311 511.624695,238.910126 
	C508.748322,239.094208 505.854095,239.000000 502.453857,238.632111 
	C501.330475,236.743744 500.591980,235.260590 500.132355,233.695526 
	C498.910980,229.536453 496.646820,227.645081 491.914825,228.068405 
	C485.717804,228.622757 479.440125,228.275208 473.054413,227.983368 
	C473.397247,224.344788 471.511993,219.908813 477.299866,219.324356 
	C482.604095,219.647064 487.641327,219.647064 493.533936,219.647064 
	C490.838104,213.598404 488.378632,208.079987 485.516113,201.657318 
	C482.463348,207.837433 479.927399,212.971313 476.967285,218.077423 
	C474.518982,217.862442 472.494904,217.675201 470.070007,217.450912 
	C469.830170,218.246338 469.415100,219.623001 468.780212,221.106918 
	C468.287140,221.414261 468.100189,221.675995 467.739929,222.180923 
	C466.957062,225.167252 467.269714,228.626007 465.709839,230.619720 
	C463.508392,233.433472 463.824585,236.070206 464.000000,239.000000 
	C462.285645,239.000000 460.571289,239.000000 458.428467,239.000000 
z"/>
<path fill="#A2BB71" opacity="1.000000" stroke="none" 
	d="
M198.449982,239.000000 
	C197.925110,225.225037 197.762115,211.449417 197.867798,197.675827 
	C197.884140,195.544220 198.785706,191.824661 199.873413,191.589081 
	C203.417694,190.821442 207.221786,190.401093 209.817749,194.749191 
	C215.763138,204.707260 222.173981,214.387497 228.403961,224.175385 
	C229.205673,225.434952 229.926071,226.789261 230.947723,227.844498 
	C231.351593,228.261627 232.475693,227.981476 233.626785,228.228455 
	C233.896835,229.572830 233.811935,230.707596 233.727051,231.842346 
	C231.812302,230.917603 229.897552,229.992844 227.683258,228.923431 
	C226.844391,230.757690 225.858429,232.913589 224.576965,234.908478 
	C218.917145,226.653854 213.552826,218.560242 208.188507,210.466644 
	C207.792343,210.579865 207.396164,210.693085 207.000000,210.806305 
	C207.000000,220.204208 207.000000,229.602097 207.000000,239.000000 
	C204.299988,239.000000 201.599976,239.000000 198.449982,239.000000 
z"/>
<path fill="#A1BB6F" opacity="1.000000" stroke="none" 
	d="
M240.914459,216.963104 
	C240.972534,216.588257 241.030640,216.213409 241.323853,215.401779 
	C241.709122,214.644348 241.859268,214.323700 242.009415,214.003067 
	C242.609024,213.196518 243.208633,212.389969 244.158005,211.109665 
	C245.393433,209.140915 246.279114,207.645920 247.093155,206.080627 
	C247.021530,206.010330 247.143387,206.169739 247.370697,206.141998 
	C247.598007,206.114243 248.042648,206.004410 248.257324,205.881042 
	C248.736618,205.532455 248.892380,205.247681 248.923401,204.939941 
	C248.907471,204.976517 248.872360,204.904861 249.181427,204.907349 
	C249.635269,204.257538 249.780045,203.605240 249.978149,202.635757 
	C250.156555,201.908279 250.281662,201.498001 250.642807,200.930267 
	C251.547363,200.085800 252.215881,199.398834 252.917221,199.075531 
	C253.041351,200.316055 253.132645,201.192886 253.223953,202.069733 
	C253.685135,202.077911 254.146301,202.086105 254.607483,202.094284 
	C254.607483,200.002899 254.607483,197.911514 254.678070,195.511932 
	C254.792709,194.787216 254.836761,194.370712 254.880798,193.954193 
	C255.182449,193.764511 255.484100,193.574814 256.407867,193.195709 
	C264.999207,192.999893 265.000488,192.999893 265.000916,200.755997 
	C265.001587,213.503998 265.000397,226.251999 265.000000,239.000000 
	C263.285645,239.000000 261.571289,239.000000 259.318481,238.745636 
	C258.242554,238.003250 257.705078,237.515244 257.105682,236.563568 
	C256.690430,229.565277 256.413452,223.024658 255.898621,216.502792 
	C255.824356,215.562057 254.606522,214.711594 253.745087,213.611206 
	C252.716461,213.599960 251.860626,213.796875 250.948929,213.856567 
	C250.806839,213.670837 250.720642,213.622330 250.634430,213.573807 
	C250.754211,213.717499 250.873978,213.861191 250.994415,214.392059 
	C251.012772,215.554657 251.030441,216.330063 250.993469,217.447632 
	C248.009476,222.223267 245.080109,226.656769 241.888458,230.934509 
	C241.088242,230.189621 240.550339,229.600479 239.889252,228.726501 
	C239.175964,227.626526 238.585846,226.811432 237.996536,225.586304 
	C237.967163,224.079803 237.936966,222.983337 237.906784,221.886856 
	C237.906784,221.886856 237.927933,222.000015 238.252243,221.956833 
	C239.355850,220.263474 240.135162,218.613281 240.914459,216.963104 
z"/>
<path fill="#FDFEFA" opacity="1.000000" stroke="none" 
	d="
M256.356018,191.645538 
	C256.300446,190.986389 255.936005,190.000244 256.235657,189.717224 
	C260.666656,185.532501 265.542816,189.217178 270.199036,189.264313 
	C271.146301,189.273895 272.820282,192.005539 272.871735,193.525925 
	C273.142273,201.515778 272.999390,209.519638 273.000000,217.518646 
	C273.000122,219.127884 273.000031,220.737106 273.000031,222.346344 
	C273.591339,222.473465 274.182678,222.600601 274.773987,222.727737 
	C275.182556,221.142212 275.917114,219.562210 275.944061,217.970230 
	C276.069641,210.548645 275.999725,203.123734 277.019135,195.497986 
	C277.319824,195.951645 277.861115,196.392426 277.886200,196.860855 
	C278.622375,210.597565 279.307068,224.337051 280.000000,238.538040 
	C275.975464,239.000000 271.950897,239.000000 267.420074,238.532928 
	C266.906738,225.457382 266.897797,212.848938 266.893311,200.240479 
	C266.889801,190.449203 266.892212,190.448792 256.834320,191.510208 
	C256.671936,191.527328 256.515320,191.599213 256.356018,191.645538 
z"/>
<path fill="#A2B973" opacity="1.000000" stroke="none" 
	d="
M430.454102,239.000000 
	C429.980438,224.704666 430.108856,210.406647 429.850037,196.115646 
	C429.773621,191.894836 431.809845,191.730103 435.024078,191.672745 
	C438.380890,191.612839 440.199585,192.070145 440.130493,196.175629 
	C439.895660,210.134705 440.031219,224.100021 440.012634,238.531464 
	C436.969391,239.000000 433.938812,239.000000 430.454102,239.000000 
z"/>
<path fill="#F9FCF2" opacity="1.000000" stroke="none" 
	d="
M473.197144,228.315582 
	C479.440125,228.275208 485.717804,228.622757 491.914825,228.068405 
	C496.646820,227.645081 498.910980,229.536453 500.132355,233.695526 
	C500.591980,235.260590 501.330475,236.743744 501.970886,238.632111 
	C491.312439,239.000000 480.624878,239.000000 469.420044,238.668091 
	C468.922180,237.889771 468.941559,237.443359 469.159973,236.710663 
	C470.638397,233.721451 471.917755,231.018524 473.197144,228.315582 
z"/>
<path fill="#F8FBF0" opacity="1.000000" stroke="none" 
	d="
M207.468277,239.000000 
	C207.000000,229.602097 207.000000,220.204208 207.000000,210.806305 
	C207.396164,210.693085 207.792343,210.579865 208.188507,210.466644 
	C213.552826,218.560242 218.917145,226.653854 224.599472,235.200043 
	C225.207489,236.128937 225.497482,236.605240 225.849091,237.399048 
	C225.940460,238.144348 225.970230,238.572174 226.000000,239.000000 
	C219.978851,239.000000 213.957703,239.000000 207.468277,239.000000 
z"/>
<path fill="#FAFDF4" opacity="1.000000" stroke="none" 
	d="
M253.917892,213.819366 
	C254.606522,214.711594 255.824356,215.562057 255.898621,216.502792 
	C256.413452,223.024658 256.690430,229.565277 257.044800,236.888657 
	C257.030579,238.118286 257.015289,238.559143 257.000000,239.000000 
	C250.978851,239.000000 244.957703,239.000000 238.555817,238.666229 
	C239.500305,235.918396 240.825531,233.504333 242.150757,231.090271 
	C245.080109,226.656769 248.009476,222.223267 251.281921,217.306412 
	C252.389313,215.821838 253.153610,214.820602 253.917892,213.819366 
z"/>
<path fill="#FBFDF5" opacity="1.000000" stroke="none" 
	d="
M285.375000,239.000000 
	C285.000000,225.299515 284.935150,211.598312 285.085907,197.899490 
	C285.103790,196.272217 286.299530,194.657913 287.419861,193.478455 
	C287.926941,208.946213 287.963470,223.973114 288.000000,239.000000 
	C287.250000,239.000000 286.500000,239.000000 285.375000,239.000000 
z"/>
<path fill="#9FB86B" opacity="1.000000" stroke="none" 
	d="
M473.054382,227.983368 
	C471.917755,231.018524 470.638397,233.721451 468.842529,236.753632 
	C467.884033,237.721924 467.442017,238.360962 467.000000,239.000000 
	C466.250000,239.000000 465.500000,239.000000 464.375000,239.000000 
	C463.824585,236.070206 463.508392,233.433472 465.709839,230.619720 
	C467.269714,228.626007 466.957062,225.167252 467.740112,222.181229 
	C468.000000,222.000000 468.001221,222.000610 468.016632,222.252441 
	C468.189514,222.770828 468.346985,223.037384 468.504456,223.303955 
	C468.669220,222.869919 468.834015,222.435867 468.999390,222.000916 
	C469.000000,222.000000 469.001221,221.997849 469.169678,221.910461 
	C469.225433,221.548904 469.112732,221.274750 469.000000,221.000305 
	C469.000000,221.000000 469.000000,220.999649 469.000000,220.999649 
	C469.415100,219.623001 469.830170,218.246338 470.070007,217.450912 
	C472.494904,217.675201 474.518982,217.862442 476.896484,218.309235 
	C477.249908,218.568802 477.032898,219.001648 477.032898,219.001648 
	C471.511993,219.908813 473.397247,224.344788 473.054382,227.983368 
M471.483124,222.589874 
	C471.483124,222.589874 471.416351,222.477448 471.483124,222.589874 
z"/>
<path fill="#A5BC74" opacity="1.000000" stroke="none" 
	d="
M256.300507,191.869522 
	C256.515320,191.599213 256.671936,191.527328 256.834320,191.510208 
	C266.892212,190.448792 266.889801,190.449203 266.893311,200.240479 
	C266.897797,212.848938 266.906738,225.457382 266.956909,238.532928 
	C266.555542,239.000000 266.111115,239.000000 265.333313,239.000000 
	C265.000397,226.251999 265.001587,213.503998 265.000916,200.755997 
	C265.000488,192.999893 264.999207,192.999893 256.601501,193.007812 
	C256.103149,192.696609 256.127136,192.391342 256.300507,191.869522 
z"/>
<path fill="#F8FBED" opacity="1.000000" stroke="none" 
	d="
M260.090759,24.905947 
	C254.334076,17.293087 248.027481,10.437792 239.321609,6.127463 
	C236.667801,4.813550 234.166977,3.190627 231.798050,1.354612 
	C232.750000,1.000000 233.500000,1.000000 234.625000,1.000003 
	C235.694763,1.831908 236.298492,3.284599 237.098083,3.401864 
	C247.759979,4.965528 253.501892,13.208055 260.038788,20.277905 
	C260.831696,21.135439 260.301483,23.216381 260.090759,24.905947 
z"/>
<path fill="#EBF5F3" opacity="1.000000" stroke="none" 
	d="
M395.020050,7.709112 
	C387.486420,5.898028 379.982269,3.773498 372.239075,1.324484 
	C378.687653,1.000000 385.375275,1.000000 392.531464,0.999999 
	C393.683197,3.131887 394.366394,5.263776 395.020050,7.709112 
M388.483978,3.591406 
	C388.483978,3.591406 388.414124,3.477984 388.483978,3.591406 
z"/>
<path fill="#B1C18D" opacity="1.000000" stroke="none" 
	d="
M288.250000,239.000000 
	C287.963470,223.973114 287.926941,208.946213 287.820374,193.453979 
	C287.861694,192.629074 287.972992,192.269531 288.467651,191.563507 
	C289.569824,191.135132 290.288605,191.053253 291.007416,190.971359 
	C291.007416,190.971359 291.113708,191.385635 291.179901,191.588043 
	C290.495483,194.038849 289.130219,196.277817 289.095490,198.537231 
	C288.893036,211.709763 289.002625,224.887100 289.003418,238.531403 
	C289.000000,239.000000 288.500000,239.000000 288.250000,239.000000 
z"/>
<path fill="#EDF6F5" opacity="1.000000" stroke="none" 
	d="
M351.532410,1.000001 
	C347.239563,2.202116 342.479095,3.404229 337.348267,4.654737 
	C336.345673,3.675791 335.713470,2.648450 335.040649,1.310555 
	C340.354919,1.000000 345.709869,1.000000 351.532410,1.000001 
z"/>
<path fill="#A6BF78" opacity="1.000000" stroke="none" 
	d="
M241.888458,230.934509 
	C240.825531,233.504333 239.500305,235.918396 238.087555,238.666229 
	C237.250000,239.000000 236.500000,239.000000 235.374908,238.747253 
	C235.000320,238.326004 235.000809,238.157516 235.270111,237.776627 
	C237.030090,234.713272 238.521255,231.862305 240.012421,229.011353 
	C240.550339,229.600479 241.088242,230.189621 241.888458,230.934509 
z"/>
<path fill="#F6FCE9" opacity="1.000000" stroke="none" 
	d="
M211.025757,2.107280 
	C206.980194,3.502556 202.934631,4.897832 198.512512,6.335930 
	C200.285095,4.772001 202.434250,3.165250 204.791687,1.279249 
	C206.714355,1.000000 208.428711,1.000000 210.572983,1.276936 
	C211.010513,1.738341 211.018143,1.922810 211.025757,2.107280 
z"/>
<path fill="#F3FAE4" opacity="1.000000" stroke="none" 
	d="
M390.437500,239.000000 
	C393.387970,237.307938 396.775909,235.615845 400.514557,233.828339 
	C399.622559,235.248108 398.379883,236.763306 397.068604,238.639252 
	C394.958344,239.000000 392.916656,239.000000 390.437500,239.000000 
z"/>
<path fill="#EFFACF" opacity="1.000000" stroke="none" 
	d="
M211.491089,2.109929 
	C211.018143,1.922810 211.010513,1.738341 211.001450,1.276936 
	C216.354935,1.000000 221.709854,1.000000 227.528961,1.272438 
	C227.982376,1.726196 227.971603,1.907516 227.960846,2.088837 
	C222.626038,2.096751 217.291214,2.104665 211.491089,2.109929 
z"/>
<path fill="#FBFDF5" opacity="1.000000" stroke="none" 
	d="
M333.914703,234.977448 
	C333.943878,234.234085 333.973053,233.490723 334.022339,232.119339 
	C334.077728,231.314285 334.112946,231.137253 334.148163,230.960236 
	C336.928436,231.033005 337.611053,232.245514 336.314880,234.727829 
	C335.743744,235.821686 335.434174,237.052155 335.002930,238.610291 
	C335.000000,239.000000 334.500000,239.000000 334.276733,238.597610 
	C334.007233,237.122635 333.960968,236.050034 333.914703,234.977448 
z"/>
<path fill="#F3FAE4" opacity="1.000000" stroke="none" 
	d="
M353.600677,224.333618 
	C353.937683,228.706100 354.007385,233.388184 354.038544,238.535126 
	C354.000000,239.000000 353.500000,239.000000 353.250000,239.000000 
	C353.111115,234.214401 353.222229,229.428787 353.600677,224.333618 
z"/>
<path fill="#A2BB71" opacity="1.000000" stroke="none" 
	d="
M235.001312,237.989029 
	C235.000809,238.157516 235.000320,238.326004 234.999908,238.747253 
	C234.250000,239.000000 233.500000,239.000000 232.266617,238.779266 
	C231.582031,238.284134 231.319321,238.095322 231.004227,237.628647 
	C231.647278,236.570618 232.281219,235.876007 232.915176,235.181412 
	C233.610550,236.117279 234.305939,237.053162 235.001312,237.989029 
z"/>
<path fill="#A6BF78" opacity="1.000000" stroke="none" 
	d="
M230.995117,237.992065 
	C231.319321,238.095322 231.582031,238.284134 231.891617,238.779266 
	C230.285645,239.000000 228.571289,239.000000 226.428467,239.000000 
	C225.970230,238.572174 225.940460,238.144348 226.241150,237.371582 
	C228.046112,237.348434 229.520615,237.670258 230.995117,237.992065 
z"/>
<path fill="#B1C18D" opacity="1.000000" stroke="none" 
	d="
M333.567139,235.058472 
	C333.960968,236.050034 334.007233,237.122635 334.026733,238.597610 
	C333.555542,239.000000 333.111115,239.000000 332.333313,239.000000 
	C332.406494,237.713150 332.813019,236.426315 333.567139,235.058472 
z"/>
<path fill="#B1C18D" opacity="1.000000" stroke="none" 
	d="
M325.399994,239.000000 
	C325.766785,235.951187 327.192749,236.948151 328.846313,238.699158 
	C327.933319,239.000000 326.866669,239.000000 325.399994,239.000000 
z"/>
<path fill="#F8FBED" opacity="1.000000" stroke="none" 
	d="
M228.189331,2.309582 
	C227.971603,1.907516 227.982376,1.726196 227.996567,1.272438 
	C228.444443,1.000000 228.888901,1.000000 229.666672,1.000000 
	C229.472595,1.510108 228.945206,2.020217 228.189331,2.309582 
z"/>
<path fill="#A4BB74" opacity="1.000000" stroke="none" 
	d="
M467.333313,239.000000 
	C467.442017,238.360962 467.884033,237.721924 468.643494,237.039917 
	C468.941559,237.443359 468.922180,237.889771 468.951416,238.668091 
	C468.555542,239.000000 468.111115,239.000000 467.333313,239.000000 
z"/>
<path fill="#A5BC74" opacity="1.000000" stroke="none" 
	d="
M257.333313,239.000000 
	C257.015289,238.559143 257.030579,238.118286 257.106750,237.352341 
	C257.705078,237.515244 258.242554,238.003250 258.890015,238.745636 
	C258.555542,239.000000 258.111115,239.000000 257.333313,239.000000 
z"/>
<path fill="#B1C18D" opacity="1.000000" stroke="none" 
	d="
M320.250000,239.000000 
	C320.273895,238.888718 320.547760,238.777451 320.910828,238.833084 
	C321.000000,239.000000 320.500000,239.000000 320.250000,239.000000 
z"/>
<path fill="#062E25" opacity="1.000000" stroke="none" 
	d="
M281.020142,151.835403 
	C279.621735,151.891846 278.223297,151.948288 276.308838,151.547501 
	C273.628540,150.726761 271.447205,150.442230 269.304474,149.979187 
	C266.785492,149.434860 264.259705,148.860672 261.810913,148.070007 
	C259.130554,147.204590 256.534790,146.077118 253.902145,145.063858 
	C253.902145,145.063858 253.984161,145.013672 253.981827,144.705719 
	C253.796951,142.531158 257.805420,140.485611 254.254883,139.030746 
	C252.401947,138.271469 249.800171,139.339706 247.536621,139.582520 
	C247.536621,139.582504 247.529526,139.478806 247.625275,139.146332 
	C248.519958,135.354568 246.057297,137.233612 244.849213,137.059250 
	C243.820160,136.315460 242.791107,135.571671 241.550491,134.674973 
	C233.173904,145.483124 222.457428,152.162354 209.209442,154.472183 
	C192.064636,157.461441 175.389465,156.651062 161.001236,145.567001 
	C144.487122,132.845261 142.043488,107.139236 155.459427,91.059898 
	C158.315964,87.636269 161.534409,84.407433 165.025635,81.644165 
	C171.154114,76.793564 177.654129,73.428291 186.180237,73.791710 
	C201.726120,74.454353 201.706314,74.023514 213.538589,84.982651 
	C218.656464,89.722862 223.977951,94.243256 229.644714,99.286125 
	C232.632065,102.038231 235.181610,104.367706 238.353897,107.266174 
	C239.448578,103.784378 240.201096,101.390923 240.953583,98.997459 
	C243.438858,90.847015 245.924149,82.696579 248.509827,74.216904 
	C254.008347,74.216904 259.924042,74.216904 267.464691,74.216904 
	C262.656738,89.825935 258.040405,104.812958 253.200027,120.527275 
	C262.016510,128.395355 271.927338,137.240021 281.949219,146.762360 
	C281.713593,148.905151 281.366852,150.370270 281.020142,151.835403 
M208.723892,105.450104 
	C207.845871,104.886879 206.967850,104.323654 205.864609,103.168381 
	C204.586014,102.087875 203.307434,101.007370 201.732346,99.343811 
	C199.864548,97.875137 197.996765,96.406471 195.891647,94.351921 
	C194.927521,93.574905 193.963379,92.797897 192.753662,91.541191 
	C192.591110,91.464760 192.428543,91.388329 191.901917,90.807182 
	C189.477081,89.993858 188.579987,85.120918 184.256577,88.091454 
	C184.256577,88.091454 183.885620,88.378716 183.157150,88.589447 
	C181.136597,90.001495 179.116043,91.413551 176.446213,93.163239 
	C175.979294,94.225891 175.512375,95.288544 174.994080,96.371826 
	C174.994080,96.371826 174.960434,96.332451 174.176270,95.714294 
	C164.900864,102.914780 164.236893,121.907478 173.229492,130.687042 
	C183.213120,140.434158 200.360733,141.112808 211.723740,136.002823 
	C218.457199,133.087631 223.907333,128.673920 228.197266,122.392143 
	C226.557434,121.166298 225.269699,120.203674 223.592911,118.697311 
	C223.211823,118.697426 222.830719,118.697533 222.328842,118.673126 
	C222.328842,118.673126 222.303574,118.552498 222.534637,118.269226 
	C222.534637,118.269226 222.373749,117.940964 222.052536,117.338669 
	C220.359055,115.918930 218.665573,114.499199 216.652954,112.520615 
	C215.147308,111.328667 213.641663,110.136719 211.904068,108.352989 
	C210.933212,107.575867 209.962357,106.798744 208.723892,105.450104 
z"/>
<path fill="#062E25" opacity="1.000000" stroke="none" 
	d="
M25.037807,73.403748 
	C41.873920,56.863125 58.715664,40.328228 75.543190,23.778873 
	C81.733391,17.691000 87.863350,11.541516 94.091858,5.493325 
	C94.984276,4.626740 96.270126,3.633055 97.388527,3.615224 
	C106.774635,3.465577 116.164162,3.530057 125.552666,3.530057 
	C125.774513,4.018935 125.996368,4.507813 126.218224,4.996691 
	C123.549484,7.419632 120.880753,9.842574 117.773361,12.689905 
	C116.166550,14.384343 114.998375,15.654389 113.830200,16.924435 
	C96.627769,33.037804 79.425346,49.151169 61.764587,65.689697 
	C58.619240,68.926033 55.932224,71.737206 52.991581,74.813721 
	C56.224541,77.575752 59.556927,80.422729 62.889313,83.269699 
	C62.879036,83.612259 63.028660,83.857101 63.651711,84.319504 
	C64.270279,84.855202 64.575325,85.075623 64.880371,85.296043 
	C71.163651,91.261734 77.405228,97.272095 83.738205,103.184555 
	C101.235252,119.519829 118.770477,135.814224 137.306335,153.070389 
	C131.650146,153.070389 126.930756,152.538788 122.374275,153.174591 
	C110.800400,154.789581 102.363777,150.768951 94.017448,142.387466 
	C72.319778,120.598381 49.551849,99.875381 27.236494,78.700089 
	C26.180080,77.697647 25.369390,76.436234 24.556854,74.699631 
	C24.792231,73.870461 24.915018,73.637100 25.037807,73.403748 
z"/>
<path fill="#FEFEFE" opacity="1.000000" stroke="none" 
	d="
M320.980804,210.742859 
	C315.963776,210.798752 310.946716,210.854614 305.391907,210.513611 
	C303.290405,208.219040 301.726685,206.321350 300.162964,204.423645 
	C302.648499,203.615967 305.102966,202.251892 307.625702,202.111206 
	C313.733551,201.770599 319.873169,202.000198 326.000000,202.000000 
	C325.355896,203.438049 324.711761,204.876083 323.661682,206.665802 
	C322.497406,208.259277 321.739105,209.501068 320.980804,210.742859 
z"/>
<path fill="#FBFDF5" opacity="1.000000" stroke="none" 
	d="
M298.090790,219.205338 
	C299.131195,219.124893 300.171631,219.044464 301.856750,218.975693 
	C302.670044,218.946671 302.838623,218.905960 303.007202,218.865250 
	C310.910187,218.865250 318.813202,218.865250 327.087891,218.865250 
	C327.087891,216.158401 327.087891,214.038940 327.021393,211.473145 
	C327.443085,211.109268 328.205963,211.021515 328.378296,211.299667 
	C331.041199,215.597565 333.770233,219.868149 336.113525,224.339172 
	C336.594421,225.256699 335.565887,226.965347 334.821259,228.172073 
	C333.319489,219.892593 332.425598,219.163345 327.001495,221.433395 
	C326.490479,223.330399 326.061615,224.922363 325.632751,226.514313 
	C324.254333,225.341400 322.951477,224.060989 321.477081,223.024658 
	C319.876923,221.899918 318.221710,220.645096 316.396210,220.110565 
	C314.713593,219.617859 312.773254,220.003799 310.946442,220.005173 
	C304.899567,220.009705 304.899567,220.010101 301.197357,225.579773 
	C302.461487,226.824860 303.722504,228.066849 304.990936,229.697235 
	C304.746704,230.238327 304.491394,230.384674 303.855591,230.654449 
	C303.478760,230.784225 303.049316,230.859207 303.049316,230.859207 
	C302.885559,230.822906 302.721832,230.786621 302.062012,230.566208 
	C300.367310,229.936783 299.168732,229.491501 297.970184,229.046204 
	C297.970184,229.046204 298.006958,229.016769 298.039886,228.569382 
	C298.078796,225.149780 298.084808,222.177551 298.090790,219.205338 
z"/>
<path fill="#FBFDF5" opacity="1.000000" stroke="none" 
	d="
M326.392517,202.006958 
	C319.873169,202.000198 313.733551,201.770599 307.625702,202.111206 
	C305.102966,202.251892 302.648499,203.615967 300.162964,204.423645 
	C301.726685,206.321350 303.290405,208.219040 304.929688,210.448120 
	C304.840576,210.845062 304.675842,210.910614 303.823547,210.977509 
	C301.573578,210.847504 300.011200,210.716141 297.947662,210.542633 
	C297.947662,207.126572 297.947662,204.064819 297.947662,201.003052 
	C299.668427,200.655426 301.385986,200.026611 303.110474,200.006989 
	C312.418396,199.901108 321.728027,199.946335 331.833984,199.920792 
	C333.032440,199.254501 333.433960,198.606857 333.835480,197.959213 
	C333.877930,196.912766 333.920380,195.866318 333.956360,194.021973 
	C332.734528,192.534546 331.569885,191.388168 330.293701,191.246445 
	C327.221313,190.905258 324.096680,191.034561 320.993103,190.974091 
	C321.890015,186.333160 325.654083,188.000107 328.191071,188.160172 
	C330.617310,188.313248 334.173706,189.151627 335.057526,190.832687 
	C336.411652,193.408325 337.060944,197.518646 335.893188,199.969086 
	C334.342010,203.223938 330.346344,203.493591 326.392517,202.006958 
z"/>
<path fill="#F8FBED" opacity="1.000000" stroke="none" 
	d="
M194.486191,33.030998 
	C202.022354,18.302017 220.597824,13.400878 234.886230,22.653471 
	C230.812454,21.790518 226.425171,22.797316 222.007019,20.642294 
	C219.254272,19.299595 214.499069,21.476959 210.852356,22.700121 
	C206.270020,24.237114 201.409378,25.527527 198.835922,30.505167 
	C198.213882,31.708359 196.211212,32.197762 194.486191,33.030998 
z"/>
<path fill="#F3FAE4" opacity="1.000000" stroke="none" 
	d="
M390.996918,191.552338 
	C378.934174,191.924026 366.859711,191.924026 354.021423,191.924026 
	C354.021423,197.552261 354.021423,202.803619 353.942230,208.514648 
	C353.585297,203.419281 353.142059,197.861969 353.217285,192.311691 
	C353.227966,191.525162 355.744263,190.146759 357.130341,190.108383 
	C364.916718,189.892914 372.714264,190.102280 380.502808,189.930817 
	C382.322327,189.890747 384.121735,188.936707 387.126709,188.050278 
	C387.717926,188.529938 389.351562,189.855301 390.996918,191.552338 
z"/>
<path fill="#EBF5F3" opacity="1.000000" stroke="none" 
	d="
M413.007324,27.731236 
	C408.917572,20.963692 404.415283,14.221480 397.088745,9.481434 
	C397.054718,8.361616 397.034668,7.501384 397.304169,6.744247 
	C397.505524,6.178729 398.080750,5.746313 398.760010,4.929154 
	C401.941071,8.455647 404.979340,11.833293 408.030975,15.198790 
	C408.645691,15.876687 409.203644,16.701389 409.971191,17.129591 
	C414.340698,19.567326 415.226532,22.983488 413.007324,27.731236 
z"/>
<path fill="#F6FCE9" opacity="1.000000" stroke="none" 
	d="
M185.018631,63.824997 
	C186.092224,63.786747 187.165802,63.748497 188.847107,63.817757 
	C190.312057,64.011841 191.169312,64.098419 192.026566,64.184982 
	C186.965225,64.432915 181.704895,65.578865 176.932770,64.521507 
	C174.788010,64.046288 172.565353,59.285995 172.225510,56.262421 
	C171.508621,49.884434 171.839417,43.361443 172.150314,36.917725 
	C172.213943,35.598866 174.075104,34.366726 175.484146,33.041862 
	C173.916733,41.438526 172.851212,49.904064 175.660370,59.130032 
	C176.645248,66.412605 181.593903,63.387283 185.018631,63.824997 
z"/>
<path fill="#A0B76C" opacity="1.000000" stroke="none" 
	d="
M231.004227,237.628647 
	C229.520615,237.670258 228.046112,237.348434 226.179550,237.054092 
	C225.497482,236.605240 225.207489,236.128937 224.894974,235.361053 
	C225.858429,232.913589 226.844391,230.757690 227.683258,228.923431 
	C229.897552,229.992844 231.812302,230.917603 233.727051,231.842346 
	C233.811935,230.707596 233.896835,229.572830 233.908249,228.053558 
	C233.984131,227.166870 234.133469,226.664673 234.918365,226.059677 
	C236.367844,225.970032 237.181793,225.983185 237.995728,225.996338 
	C238.585846,226.811432 239.175964,227.626526 239.889252,228.726501 
	C238.521255,231.862305 237.030090,234.713272 235.270111,237.776627 
	C234.305939,237.053162 233.610550,236.117279 232.915176,235.181412 
	C232.281219,235.876007 231.647278,236.570618 231.004227,237.628647 
z"/>
<path fill="#FDFEFA" opacity="1.000000" stroke="none" 
	d="
M264.067352,184.010773 
	C263.022247,183.778336 262.396393,183.581406 261.763885,183.408722 
	C259.481964,182.785675 256.160492,182.849930 257.262421,179.155609 
	C258.349945,175.509659 261.194550,177.479874 263.457184,177.924728 
	C265.380188,178.302795 267.460052,178.316681 269.190765,179.105499 
	C270.638763,179.765503 271.682190,181.313232 272.904755,182.467880 
	C271.533630,183.308289 270.247711,184.558151 268.765839,184.866592 
	C267.451508,185.140182 265.919495,184.367966 264.067352,184.010773 
z"/>
<path fill="#F0F6F5" opacity="1.000000" stroke="none" 
	d="
M62.918098,82.877846 
	C59.556927,80.422729 56.224541,77.575752 52.991581,74.813721 
	C55.932224,71.737206 58.619240,68.926033 61.625233,65.991478 
	C62.392326,68.744484 63.557060,71.820282 59.292175,73.116592 
	C58.957150,73.218430 58.932846,75.776291 59.436260,76.888474 
	C60.336170,78.876663 61.748672,80.632828 62.918098,82.877846 
z"/>
<path fill="#FDFEFA" opacity="1.000000" stroke="none" 
	d="
M250.406769,201.087738 
	C250.281662,201.498001 250.156555,201.908279 249.765656,202.635864 
	C249.499863,202.953171 249.082840,203.037125 248.721283,203.079590 
	C247.954285,204.137955 247.548843,205.153854 247.143387,206.169739 
	C247.143387,206.169739 247.021530,206.010330 246.735870,205.989090 
	C244.971710,205.313324 243.493225,204.658798 242.014725,204.004272 
	C239.259140,200.105225 242.793213,197.248032 243.866959,194.056000 
	C244.087402,193.400665 246.209564,193.385025 248.576492,192.794998 
	C247.376831,195.430115 246.728989,196.853149 245.756500,198.673035 
	C245.109650,199.374649 244.787430,199.679398 244.465225,199.984146 
	C244.674561,200.165649 244.883896,200.347153 245.093231,200.528641 
	C245.395493,200.019089 245.697739,199.509552 246.000000,199.000000 
	C246.441467,198.999496 246.882919,198.998993 247.715271,199.352341 
	C248.873032,200.166702 249.639908,200.627228 250.406769,201.087738 
z"/>
<path fill="#EDF6F5" opacity="1.000000" stroke="none" 
	d="
M359.949402,64.608673 
	C354.005066,62.895664 348.005432,60.841984 341.771698,58.502399 
	C342.512177,57.730419 343.486755,57.244347 344.277679,56.849850 
	C344.204529,56.767708 344.796936,57.432808 345.673615,58.208000 
	C345.957886,58.318092 345.936401,58.340843 345.936401,58.340843 
	C352.713501,55.313553 355.773499,61.039562 359.949402,64.608673 
z"/>
<path fill="#0F2B24" opacity="1.000000" stroke="none" 
	d="
M254.033081,145.378387 
	C256.534790,146.077118 259.130554,147.204590 261.810913,148.070007 
	C264.259705,148.860672 266.785492,149.434860 269.304474,149.979187 
	C271.447205,150.442230 273.628540,150.726761 275.894775,151.470612 
	C274.356293,151.904755 272.676697,151.749664 271.082184,152.048447 
	C264.123535,153.352356 258.715912,150.703568 254.033081,145.378387 
z"/>
<path fill="#E9F4F3" opacity="1.000000" stroke="none" 
	d="
M240.601227,99.036499 
	C240.201096,101.390923 239.448578,103.784378 238.353897,107.266174 
	C235.181610,104.367706 232.632065,102.038231 229.960556,99.389084 
	C231.383331,98.575279 232.928040,98.081131 234.472763,97.586983 
	C234.470856,97.948822 234.468964,98.310654 234.467056,98.672493 
	C236.394333,98.806839 238.321594,98.941185 240.601227,99.036499 
z"/>
<path fill="#EDF6F5" opacity="1.000000" stroke="none" 
	d="
M377.057251,24.292173 
	C382.862854,25.187017 387.038025,28.822887 390.646393,33.699570 
	C388.309387,33.528896 385.895752,33.039688 383.379486,32.220669 
	C383.185089,31.927929 383.093292,31.965006 383.001495,32.002090 
	C381.030365,29.552055 379.059204,27.102018 377.057251,24.292173 
z"/>
<path fill="#F8FBED" opacity="1.000000" stroke="none" 
	d="
M245.246002,32.269531 
	C249.937210,30.491491 254.881363,29.001591 260.126221,27.244736 
	C261.574310,26.977781 262.721649,26.977781 264.058411,26.977781 
	C261.205597,30.922171 252.318130,33.488674 245.246002,32.269531 
z"/>
<path fill="#F8FBED" opacity="1.000000" stroke="none" 
	d="
M192.144043,58.809330 
	C191.463837,55.788651 190.783646,52.767971 190.185867,49.361942 
	C191.057968,49.477848 192.533432,49.985477 192.528839,50.479359 
	C192.492172,54.426464 194.502045,57.065033 197.241180,59.587147 
	C197.645065,59.959042 196.141052,62.403034 195.145325,63.561985 
	C193.895279,61.760204 193.019669,60.284767 192.144043,58.809330 
z"/>
<path fill="#F6FCE9" opacity="1.000000" stroke="none" 
	d="
M185.906067,15.242710 
	C183.386871,19.799698 180.501801,24.265432 177.356873,28.966690 
	C175.719589,21.999739 179.377701,17.823145 185.906067,15.242710 
z"/>
<path fill="#F3FAE4" opacity="1.000000" stroke="none" 
	d="
M409.250793,209.868637 
	C406.700256,205.893738 404.465637,201.763794 402.083618,197.324158 
	C406.582031,197.467239 411.544739,205.726501 409.250793,209.868637 
z"/>
<path fill="#F8FBED" opacity="1.000000" stroke="none" 
	d="
M190.588287,46.931622 
	C190.991180,43.179707 191.740494,39.341759 192.764328,35.260284 
	C192.337479,38.959698 191.636108,42.902645 190.588287,46.931622 
z"/>
<path fill="#B1C18D" opacity="1.000000" stroke="none" 
	d="
M320.942627,191.184723 
	C324.096680,191.034561 327.221313,190.905258 330.293701,191.246445 
	C331.569885,191.388168 332.734528,192.534546 333.900146,193.632431 
	C329.744751,193.430344 325.639099,192.819885 321.145874,192.008392 
	C320.758362,191.807388 320.892151,191.395370 320.942627,191.184723 
z"/>
<path fill="#F3FAE4" opacity="1.000000" stroke="none" 
	d="
M403.227905,231.944977 
	C404.736389,227.788406 406.630127,223.657684 408.775482,219.268066 
	C409.731232,224.377594 408.434265,228.910187 403.227905,231.944977 
z"/>
<path fill="#0F2B24" opacity="1.000000" stroke="none" 
	d="
M247.717010,139.847229 
	C249.800171,139.339706 252.401947,138.271469 254.254883,139.030746 
	C257.805420,140.485611 253.796951,142.531158 253.958221,144.747620 
	C251.923767,143.435608 249.910583,141.773773 247.717010,139.847229 
z"/>
<path fill="#F3F8EA" opacity="1.000000" stroke="none" 
	d="
M242.040436,204.334320 
	C243.493225,204.658798 244.971710,205.313324 246.807495,206.059387 
	C246.279114,207.645920 245.393433,209.140915 244.229675,210.811127 
	C243.323105,208.879013 242.694626,206.771683 242.040436,204.334320 
z"/>
<path fill="#F3F8EA" opacity="1.000000" stroke="none" 
	d="
M250.642822,200.930267 
	C249.639908,200.627228 248.873032,200.166702 248.046371,199.351746 
	C250.047409,197.326401 252.108231,195.655502 254.524933,193.969391 
	C254.836761,194.370712 254.792709,194.787216 254.451294,195.693329 
	C253.730759,197.025894 253.307587,197.868881 252.884399,198.711853 
	C252.215881,199.398834 251.547363,200.085800 250.642822,200.930267 
z"/>
<path fill="#FBFDF5" opacity="1.000000" stroke="none" 
	d="
M336.261230,210.568375 
	C334.240997,209.794617 332.488342,208.806168 330.735687,207.817719 
	C331.318542,207.102036 331.901398,206.386353 332.484253,205.670670 
	C333.832428,207.231674 335.180634,208.792679 336.261230,210.568375 
z"/>
<path fill="#A7B680" opacity="1.000000" stroke="none" 
	d="
M191.939941,59.110466 
	C193.019669,60.284767 193.895279,61.760204 194.769653,63.556564 
	C194.082382,63.943886 193.396347,64.010284 192.368439,64.130829 
	C191.169312,64.098419 190.312057,64.011841 189.167511,63.792725 
	C189.832092,62.243988 190.783966,60.827797 191.939941,59.110466 
z"/>
<path fill="#0F2B24" opacity="1.000000" stroke="none" 
	d="
M281.434784,151.923431 
	C281.366852,150.370270 281.713593,148.905151 282.094147,147.054611 
	C283.869293,148.008652 285.610657,149.348114 287.351990,150.687561 
	C287.280426,151.128845 287.208862,151.570145 287.137299,152.011444 
	C285.374664,152.011444 283.612061,152.011444 281.434784,151.923431 
z"/>
<path fill="#FBFDF5" opacity="1.000000" stroke="none" 
	d="
M321.393066,210.829773 
	C321.739105,209.501068 322.497406,208.259277 323.627869,207.009354 
	C324.645477,208.083160 325.290955,209.165085 325.968933,210.562119 
	C324.602753,210.890366 323.204010,210.903519 321.393066,210.829773 
z"/>
<path fill="#F8FBED" opacity="1.000000" stroke="none" 
	d="
M267.897125,29.277985 
	C268.007355,30.545557 267.759766,31.700890 267.512207,32.856224 
	C266.795319,32.616665 266.078461,32.377106 265.361572,32.137550 
	C266.087494,31.146946 266.813416,30.156343 267.897125,29.277985 
z"/>
<path fill="#F6FCE9" opacity="1.000000" stroke="none" 
	d="
M191.884293,10.102898 
	C190.506866,11.821013 188.734055,13.496082 186.647293,15.225872 
	C186.028198,11.541953 188.250137,10.298852 191.884293,10.102898 
z"/>
<path fill="#AFC28B" opacity="1.000000" stroke="none" 
	d="
M324.767181,230.630585 
	C322.829041,231.021545 320.607513,231.212921 318.136658,231.087540 
	C317.887299,230.770798 317.931030,230.383255 318.337646,230.248459 
	C319.495789,230.093811 320.247284,230.073959 320.998810,230.054108 
	C322.160461,230.179718 323.322144,230.305359 324.767181,230.630585 
z"/>
<path fill="#EAF8F6" opacity="1.000000" stroke="none" 
	d="
M114.260612,16.944866 
	C114.998375,15.654389 116.166550,14.384343 117.637581,12.993243 
	C118.362823,14.067239 118.785210,15.262287 119.103409,16.728399 
	C117.563156,16.988075 116.127090,16.976686 114.260612,16.944866 
z"/>
<path fill="#F8FBED" opacity="1.000000" stroke="none" 
	d="
M235.016037,23.355282 
	C236.620407,24.082212 238.216934,25.199610 239.954422,26.618406 
	C237.647415,27.067423 235.160675,27.277185 235.016037,23.355282 
z"/>
<path fill="#A6BF78" opacity="1.000000" stroke="none" 
	d="
M240.623260,217.118347 
	C240.135162,218.613281 239.355850,220.263474 238.220322,221.908936 
	C238.686737,220.360687 239.509384,218.817154 240.623260,217.118347 
z"/>
<path fill="#E4F4F1" opacity="1.000000" stroke="none" 
	d="
M393.597870,42.284542 
	C394.230591,44.073215 394.619598,46.147820 394.921387,48.617134 
	C394.340820,46.864723 393.847473,44.717598 393.597870,42.284542 
z"/>
<path fill="#F8FBED" opacity="1.000000" stroke="none" 
	d="
M240.055023,27.281902 
	C241.402710,28.351709 242.726501,29.799688 244.142960,31.567404 
	C242.834106,30.478117 241.432617,29.069096 240.055023,27.281902 
z"/>
<path fill="#244039" opacity="1.000000" stroke="none" 
	d="
M20.387447,153.003174 
	C21.004330,151.930878 22.022549,150.953156 23.379700,149.965118 
	C24.613005,152.746552 23.185818,153.374207 20.387447,153.003174 
z"/>
<path fill="#F6FCE9" opacity="1.000000" stroke="none" 
	d="
M197.212372,6.267099 
	C196.278000,7.470465 194.945648,8.584888 193.296936,9.782085 
	C194.258499,8.635959 195.536453,7.407058 197.212372,6.267099 
z"/>
<path fill="#A6BF78" opacity="1.000000" stroke="none" 
	d="
M237.996536,225.586304 
	C237.181793,225.983185 236.367844,225.970032 235.146194,225.917694 
	C235.595520,224.631012 236.452576,223.383499 237.608200,222.011429 
	C237.936966,222.983337 237.967163,224.079803 237.996536,225.586304 
z"/>
<path fill="#244039" opacity="1.000000" stroke="none" 
	d="
M23.861782,80.173447 
	C22.952106,80.228958 22.118925,80.043533 21.285744,79.858109 
	C21.844749,79.241570 22.403753,78.625031 23.324419,77.986374 
	C23.770144,78.620338 23.854210,79.276421 23.861782,80.173447 
z"/>
<path fill="#0F2B24" opacity="1.000000" stroke="none" 
	d="
M244.964035,137.341019 
	C246.057297,137.233612 248.519958,135.354568 247.573303,139.146179 
	C246.643341,138.859924 245.861099,138.241348 244.964035,137.341019 
z"/>
<path fill="#FBFDF5" opacity="1.000000" stroke="none" 
	d="
M320.953522,229.714310 
	C320.247284,230.073959 319.495789,230.093811 318.372131,230.056519 
	C318.529175,227.742203 319.467316,227.388443 320.953522,229.714310 
z"/>
<path fill="#FBFDF5" opacity="1.000000" stroke="none" 
	d="
M290.950500,190.629669 
	C290.288605,191.053253 289.569824,191.135132 288.495850,191.282547 
	C288.258911,188.918869 289.070984,188.291382 290.950500,190.629669 
z"/>
<path fill="#F8FBED" opacity="1.000000" stroke="none" 
	d="
M225.208099,27.797068 
	C225.570404,27.197384 225.995361,26.895878 226.420303,26.594368 
	C226.534821,27.039921 226.649338,27.485479 226.763840,27.931038 
	C226.266144,27.985773 225.768463,28.040508 225.208099,27.797068 
z"/>
<path fill="#FBFDF5" opacity="1.000000" stroke="none" 
	d="
M334.609863,181.535400 
	C335.058350,181.651184 335.333252,181.933640 335.586914,182.234055 
	C335.593414,182.241760 335.366852,182.446243 335.248962,182.558929 
	C334.977142,182.274109 334.705353,181.989273 334.609863,181.535400 
z"/>
<path fill="#E4F4F1" opacity="1.000000" stroke="none" 
	d="
M391.872681,37.115662 
	C392.404510,37.440975 392.693573,37.919773 392.935272,38.706039 
	C392.468567,38.432049 392.049194,37.850597 391.872681,37.115662 
z"/>
<path fill="#FBFDF5" opacity="1.000000" stroke="none" 
	d="
M330.991974,229.810333 
	C330.823273,230.148178 330.657684,230.169067 330.248260,230.133636 
	C330.055267,229.339233 330.106140,228.601135 330.156982,227.863052 
	C330.341125,227.857040 330.525269,227.851028 330.709412,227.845001 
	C330.804626,228.394470 330.899872,228.943939 330.991974,229.810333 
z"/>
<path fill="#EDF6F5" opacity="1.000000" stroke="none" 
	d="
M340.012146,54.759281 
	C339.901611,54.592239 339.955566,54.424023 340.009491,54.255810 
	C340.065216,54.423244 340.120941,54.590679 340.012146,54.759281 
z"/>
<path fill="#062E25" opacity="1.000000" stroke="none" 
	d="
M345.969055,58.337692 
	C345.936401,58.340843 345.957886,58.318092 346.016907,58.320930 
	C346.075958,58.323765 346.001709,58.334538 345.969055,58.337692 
z"/>
<path fill="#244039" opacity="1.000000" stroke="none" 
	d="
M24.751057,73.482697 
	C24.915018,73.637100 24.792231,73.870461 24.421776,74.412476 
	C24.174110,74.721130 24.146059,74.659058 24.116205,74.669357 
	C24.041172,74.492912 23.995991,74.306160 23.910206,73.834244 
	C24.067839,73.553261 24.266073,73.557457 24.751057,73.482697 
z"/>
<path fill="#B1C18D" opacity="1.000000" stroke="none" 
	d="
M333.858154,230.928650 
	C334.112946,231.137253 334.077728,231.314285 333.965393,231.750946 
	C333.585327,231.892044 333.344604,231.696793 333.078857,231.205643 
	C333.183777,230.956665 333.375977,230.926849 333.858154,230.928650 
z"/>
<path fill="#EDF6F5" opacity="1.000000" stroke="none" 
	d="
M340.849487,57.722691 
	C340.651459,57.841488 340.304504,57.736427 339.841553,57.373241 
	C340.050568,57.243023 340.375549,57.370926 340.849487,57.722691 
z"/>
<path fill="#F0F6F5" opacity="1.000000" stroke="none" 
	d="
M64.803833,85.012131 
	C64.575325,85.075623 64.270279,84.855202 63.874542,84.359467 
	C64.098328,84.298843 64.412811,84.513535 64.803833,85.012131 
z"/>
<path fill="#F3F8EA" opacity="1.000000" stroke="none" 
	d="
M241.767792,214.137665 
	C241.859268,214.323700 241.709122,214.644348 241.334320,215.117462 
	C241.248505,214.937378 241.387344,214.604813 241.767792,214.137665 
z"/>
<path fill="#F6FCE9" opacity="1.000000" stroke="none" 
	d="
M176.695435,30.188995 
	C176.832153,30.373528 176.741425,30.740412 176.431046,31.298534 
	C176.296921,31.116964 176.382446,30.744156 176.695435,30.188995 
z"/>
<path fill="#EBF5F3" opacity="1.000000" stroke="none" 
	d="
M415.466736,28.450191 
	C415.522125,28.417191 415.411346,28.483192 415.466736,28.450191 
z"/>
<path fill="#F3FAE4" opacity="1.000000" stroke="none" 
	d="
M392.836090,192.601562 
	C392.671600,192.716537 392.348572,192.634964 391.874512,192.342758 
	C392.041504,192.223083 392.359528,192.314026 392.836090,192.601562 
z"/>
<path fill="#A7B680" opacity="1.000000" stroke="none" 
	d="
M184.952881,63.459862 
	C181.593903,63.387283 176.645248,66.412605 175.905457,59.424965 
	C177.428146,59.684254 178.983826,60.317776 180.513626,61.008568 
	C181.985382,61.673134 183.430389,62.396946 184.952881,63.459862 
z"/>
<path fill="#FDFEF8" opacity="1.000000" stroke="none" 
	d="
M375.007782,230.083740 
	C371.225708,230.084015 367.937042,230.084015 364.331604,230.084015 
	C364.331604,219.952408 364.331604,210.373398 364.331604,199.731750 
	C372.334015,200.084259 380.311768,199.755569 388.048126,200.967758 
	C395.783813,202.179825 399.574951,208.425339 398.982849,216.364426 
	C398.423859,223.859497 393.125366,229.290115 385.492493,229.919098 
	C382.180054,230.192047 378.832703,230.041611 375.007782,230.083740 
z"/>
<path fill="#B1C18D" opacity="1.000000" stroke="none" 
	d="
M297.631073,201.187622 
	C297.947662,204.064819 297.947662,207.126572 297.947662,210.542633 
	C300.011200,210.716141 301.573578,210.847504 303.565460,211.041626 
	C301.881989,211.248322 299.769012,211.392242 297.656036,211.536163 
	C297.542175,208.148178 297.428345,204.760178 297.631073,201.187622 
z"/>
<path fill="#AFC28B" opacity="1.000000" stroke="none" 
	d="
M297.878571,219.028000 
	C298.084808,222.177551 298.078796,225.149780 298.016602,228.570801 
	C297.149811,227.669144 295.628632,226.284332 295.691864,224.976135 
	C295.791901,222.907318 296.953827,220.889862 297.878571,219.028000 
z"/>
<path fill="#AFC28B" opacity="1.000000" stroke="none" 
	d="
M297.969238,229.417343 
	C299.168732,229.491501 300.367310,229.936783 301.811005,230.582748 
	C300.198547,232.485428 298.661133,232.872009 297.969238,229.417343 
z"/>
<path fill="#B1C18D" opacity="1.000000" stroke="none" 
	d="
M333.547668,198.012177 
	C333.433960,198.606857 333.032440,199.254501 332.295044,199.849899 
	C332.392761,199.220154 332.826324,198.642654 333.547668,198.012177 
z"/>
<path fill="#AFC28B" opacity="1.000000" stroke="none" 
	d="
M303.049316,231.126419 
	C303.049316,230.859207 303.478760,230.784225 303.695251,230.806030 
	C303.738800,231.264923 303.565887,231.702026 303.392944,232.139130 
	C303.278442,231.890640 303.163879,231.642136 303.049316,231.126419 
z"/>
<path fill="#AFC28B" opacity="1.000000" stroke="none" 
	d="
M302.908386,218.719666 
	C302.838623,218.905960 302.670044,218.946671 302.246552,218.935501 
	C302.264252,218.780457 302.536896,218.677277 302.908386,218.719666 
z"/>
<path fill="#F7FCEB" opacity="1.000000" stroke="none" 
	d="
M477.299866,219.324356 
	C477.032898,219.001648 477.249908,218.568802 477.320679,218.336990 
	C479.927399,212.971313 482.463348,207.837433 485.516113,201.657318 
	C488.378632,208.079987 490.838104,213.598404 493.533936,219.647064 
	C487.641327,219.647064 482.604095,219.647064 477.299866,219.324356 
z"/>
<path fill="#9FB86B" opacity="1.000000" stroke="none" 
	d="
M467.999786,221.999695 
	C468.100189,221.675995 468.287140,221.414261 468.780212,221.106918 
	C469.000000,220.999649 469.000000,221.000000 468.999939,221.249603 
	C468.999847,221.499222 469.001221,221.997849 469.001221,221.997849 
	C469.001221,221.997849 469.000000,222.000000 468.750000,222.000061 
	C468.500000,222.000122 468.001221,222.000610 468.001221,222.000610 
	C468.001221,222.000610 468.000000,222.000000 467.999786,221.999695 
z"/>
<path fill="#A5BC74" opacity="1.000000" stroke="none" 
	d="
M252.917236,199.075531 
	C253.307587,197.868881 253.730759,197.025894 254.380707,196.001526 
	C254.607483,197.911514 254.607483,200.002899 254.607483,202.094284 
	C254.146301,202.086105 253.685135,202.077911 253.223953,202.069733 
	C253.132645,201.192886 253.041351,200.316055 252.917236,199.075531 
z"/>
<path fill="#A5BC74" opacity="1.000000" stroke="none" 
	d="
M253.745087,213.611206 
	C253.153610,214.820602 252.389313,215.821838 251.336563,216.964264 
	C251.030441,216.330063 251.012772,215.554657 250.997543,214.389618 
	C251.000000,214.000000 251.004807,213.993774 251.004807,213.993774 
	C251.860626,213.796875 252.716461,213.599960 253.745087,213.611206 
z"/>
<path fill="#F3F8EA" opacity="1.000000" stroke="none" 
	d="
M247.370697,206.141998 
	C247.548843,205.153854 247.954285,204.137955 248.701035,203.392883 
	C248.985672,204.077423 248.929016,204.491135 248.872375,204.904861 
	C248.872360,204.904861 248.907471,204.976517 248.687820,205.039703 
	C248.326324,205.403381 248.184479,205.703888 248.042633,206.004410 
	C248.042648,206.004410 247.598007,206.114243 247.370697,206.141998 
z"/>
<path fill="#A5BC74" opacity="1.000000" stroke="none" 
	d="
M249.181427,204.907349 
	C248.929016,204.491135 248.985672,204.077423 249.062592,203.350403 
	C249.082840,203.037125 249.499863,202.953171 249.712341,202.953064 
	C249.780045,203.605240 249.635269,204.257538 249.181427,204.907349 
z"/>
<path fill="#A5BC74" opacity="1.000000" stroke="none" 
	d="
M250.996872,214.002441 
	C250.873978,213.861191 250.754211,213.717499 250.634430,213.573807 
	C250.720642,213.622330 250.806839,213.670837 250.948929,213.856567 
	C251.004807,213.993774 251.000000,214.000000 250.996872,214.002441 
z"/>
<path fill="#A5BC74" opacity="1.000000" stroke="none" 
	d="
M248.257324,205.881042 
	C248.184479,205.703888 248.326324,205.403381 248.703735,205.003113 
	C248.892380,205.247681 248.736618,205.532455 248.257324,205.881042 
z"/>
<path fill="#A4BB74" opacity="1.000000" stroke="none" 
	d="
M468.016632,222.252441 
	C468.001221,222.000610 468.500000,222.000122 468.749390,222.000977 
	C468.834015,222.435867 468.669220,222.869919 468.504456,223.303955 
	C468.346985,223.037384 468.189514,222.770828 468.016632,222.252441 
z"/>
<path fill="#A4BB74" opacity="1.000000" stroke="none" 
	d="
M471.449738,222.533661 
	C471.416351,222.477448 471.483124,222.589874 471.449738,222.533661 
z"/>
<path fill="#A4BB74" opacity="1.000000" stroke="none" 
	d="
M469.169678,221.910461 
	C469.001221,221.997849 468.999847,221.499222 468.999939,221.249908 
	C469.112732,221.274750 469.225433,221.548904 469.169678,221.910461 
z"/>
<path fill="#FEFEFE" opacity="1.000000" stroke="none" 
	d="
M388.449036,3.534695 
	C388.414124,3.477984 388.483978,3.591406 388.449036,3.534695 
z"/>
<path fill="#FCFDFE" opacity="1.000000" stroke="none" 
	d="
M212.136002,108.944763 
	C213.641663,110.136719 215.147308,111.328667 216.822052,113.176552 
	C217.374832,117.049919 219.344406,118.189659 222.373749,117.940964 
	C222.373749,117.940964 222.534637,118.269226 222.231750,118.529228 
	C221.928345,118.977997 221.927826,119.166771 221.927307,119.355537 
	C222.101410,119.136238 222.275513,118.916946 222.449631,118.697647 
	C222.830719,118.697533 223.211823,118.697426 223.778503,119.306610 
	C222.831482,125.568184 220.372025,130.064819 214.476517,132.178589 
	C213.052109,132.689285 212.143112,134.637527 210.997101,135.924713 
	C200.360733,141.112808 183.213120,140.434158 173.229492,130.687042 
	C164.236893,121.907478 164.900864,102.914780 174.336456,96.162231 
	C174.472733,96.735313 174.448807,96.860458 174.424896,96.985603 
	C174.631744,96.774132 174.838593,96.562660 175.045441,96.351189 
	C175.512375,95.288544 175.979294,94.225891 176.959290,93.543282 
	C179.223389,94.665550 180.974426,95.407776 182.777664,96.172127 
	C183.253494,92.825150 183.569565,90.601929 183.885620,88.378716 
	C183.885620,88.378716 184.256577,88.091454 184.637482,88.475418 
	C186.413498,89.955238 187.693680,91.290253 189.254883,92.040443 
	C189.975494,92.386703 191.245224,91.590233 192.265976,91.311890 
	C192.428543,91.388329 192.591110,91.464760 192.874084,92.143784 
	C192.839249,95.193367 193.514008,96.453148 196.128983,94.937805 
	C197.996765,96.406471 199.864548,97.875137 201.872498,100.018341 
	C202.210632,103.258621 202.399536,105.836449 206.089844,103.760422 
	C206.967850,104.323654 207.845871,104.886879 208.865662,106.113884 
	C210.050278,107.500031 211.093140,108.222404 212.136002,108.944763 
M188.483459,94.588120 
	C188.483459,94.588120 188.416504,94.476028 188.483459,94.588120 
M212.589096,112.516754 
	C212.589096,112.516754 212.478394,112.582512 212.589096,112.516754 
z"/>
<path fill="#EEF6F6" opacity="1.000000" stroke="none" 
	d="
M211.360413,135.963776 
	C212.143112,134.637527 213.052109,132.689285 214.476517,132.178589 
	C220.372025,130.064819 222.831482,125.568184 223.973038,119.578476 
	C225.269699,120.203674 226.557434,121.166298 228.197266,122.392143 
	C223.907333,128.673920 218.457199,133.087631 211.360413,135.963776 
z"/>
<path fill="#EEF6F6" opacity="1.000000" stroke="none" 
	d="
M183.521393,88.484085 
	C183.569565,90.601929 183.253494,92.825150 182.777664,96.172127 
	C180.974426,95.407776 179.223389,94.665550 177.283936,93.374466 
	C179.116043,91.413551 181.136597,90.001495 183.521393,88.484085 
z"/>
<path fill="#EEF6F6" opacity="1.000000" stroke="none" 
	d="
M192.083954,91.059532 
	C191.245224,91.590233 189.975494,92.386703 189.254883,92.040443 
	C187.693680,91.290253 186.413498,89.955238 184.871948,88.482948 
	C188.579987,85.120918 189.477081,89.993858 192.083954,91.059532 
z"/>
<path fill="#EEF6F6" opacity="1.000000" stroke="none" 
	d="
M205.977234,103.464401 
	C202.399536,105.836449 202.210632,103.258621 202.020752,100.309860 
	C203.307434,101.007370 204.586014,102.087875 205.977234,103.464401 
z"/>
<path fill="#EEF6F6" opacity="1.000000" stroke="none" 
	d="
M222.213135,117.639816 
	C219.344406,118.189659 217.374832,117.049919 216.981613,113.455978 
	C218.665573,114.499199 220.359055,115.918930 222.213135,117.639816 
z"/>
<path fill="#EEF6F6" opacity="1.000000" stroke="none" 
	d="
M196.010315,94.644867 
	C193.514008,96.453148 192.839249,95.193367 192.996887,92.383621 
	C193.963379,92.797897 194.927521,93.574905 196.010315,94.644867 
z"/>
<path fill="#EEF6F6" opacity="1.000000" stroke="none" 
	d="
M212.020035,108.648880 
	C211.093140,108.222404 210.050278,107.500031 208.999451,106.399643 
	C209.962357,106.798744 210.933212,107.575867 212.020035,108.648880 
z"/>
<path fill="#EEF6F6" opacity="1.000000" stroke="none" 
	d="
M175.019760,96.361511 
	C174.838593,96.562660 174.631744,96.774132 174.424896,96.985603 
	C174.448807,96.860458 174.472733,96.735313 174.728546,96.471313 
	C174.960434,96.332451 174.994080,96.371826 175.019760,96.361511 
z"/>
<path fill="#FEFEFE" opacity="1.000000" stroke="none" 
	d="
M245.715942,199.034943 
	C245.697739,199.509552 245.395493,200.019089 245.093231,200.528641 
	C244.883896,200.347153 244.674561,200.165649 244.465225,199.984146 
	C244.787430,199.679398 245.109650,199.374649 245.715942,199.034943 
z"/>
<path fill="#FEFEFE" opacity="1.000000" stroke="none" 
	d="
M383.000732,32.001041 
	C383.093292,31.965006 383.185089,31.927929 383.137207,31.944622 
	C382.997559,31.998394 383.000000,32.000000 383.000732,32.001041 
z"/>
<path fill="#EEF6F6" opacity="1.000000" stroke="none" 
	d="
M188.449982,94.532074 
	C188.416504,94.476028 188.483459,94.588120 188.449982,94.532074 
z"/>
<path fill="#EEF6F6" opacity="1.000000" stroke="none" 
	d="
M212.533752,112.549637 
	C212.478394,112.582512 212.589096,112.516754 212.533752,112.549637 
z"/>
<path fill="#EEF6F6" opacity="1.000000" stroke="none" 
	d="
M222.389236,118.685387 
	C222.275513,118.916946 222.101410,119.136238 221.927307,119.355537 
	C221.927826,119.166771 221.928345,118.977997 222.116211,118.670868 
	C222.303574,118.552498 222.328842,118.673126 222.389236,118.685387 
z"/>
</svg>