<svg width="512" height="238" xmlns="http://www.w3.org/2000/svg">
<path d="M176,73 L175,74 L174,74 L173,75 L172,75 L171,76 L170,76 L168,78 L167,78 L165,80 L164,80 L160,84 L159,84 L159,85 L153,91 L153,92 L151,94 L151,95 L150,96 L150,97 L149,98 L149,99 L148,100 L148,102 L147,103 L147,106 L146,107 L146,119 L147,120 L147,124 L148,125 L148,128 L149,129 L149,130 L150,131 L150,132 L151,133 L151,134 L152,135 L152,136 L155,139 L155,140 L157,142 L158,142 L162,146 L163,146 L164,147 L165,147 L166,148 L167,148 L168,149 L169,149 L170,150 L172,150 L173,151 L175,151 L176,152 L179,152 L180,153 L187,153 L188,154 L199,154 L200,153 L207,153 L208,152 L211,152 L212,151 L215,151 L216,150 L217,150 L218,149 L220,149 L221,148 L222,148 L223,147 L224,147 L225,146 L226,146 L229,143 L230,143 L240,133 L241,133 L247,139 L248,139 L255,146 L256,146 L260,150 L285,150 L285,149 L283,147 L282,147 L274,139 L273,139 L264,130 L263,130 L256,123 L255,123 L250,118 L251,117 L251,116 L252,115 L252,113 L253,112 L253,111 L254,110 L254,109 L255,108 L255,106 L256,105 L256,104 L257,103 L257,101 L258,100 L258,98 L259,97 L259,94 L260,93 L260,91 L261,90 L261,87 L262,86 L262,83 L263,82 L263,77 L264,76 L264,73 L247,73 L247,74 L246,75 L246,79 L245,80 L245,83 L244,84 L244,87 L243,88 L243,90 L242,91 L242,94 L241,95 L241,97 L240,98 L240,99 L239,100 L239,102 L238,103 L238,104 L236,106 L227,97 L226,97 L218,89 L217,89 L210,82 L209,82 L200,73 Z M183,86 L184,85 L186,85 L189,88 L190,88 L197,95 L198,95 L205,102 L206,102 L213,109 L214,109 L221,116 L222,116 L227,121 L227,122 L218,131 L217,131 L215,133 L214,133 L213,134 L212,134 L211,135 L209,135 L208,136 L207,136 L206,137 L202,137 L201,138 L188,138 L187,137 L184,137 L183,136 L181,136 L180,135 L179,135 L178,134 L177,134 L176,133 L175,133 L169,127 L169,126 L168,125 L168,124 L167,123 L167,122 L166,121 L166,119 L165,118 L165,106 L166,105 L166,103 L167,102 L167,101 L168,100 L168,99 L169,98 L169,97 L177,89 L178,89 L180,87 L181,87 L182,86 Z M0,3 L0,151 L22,151 L22,75 L23,74 L31,82 L32,82 L50,100 L51,100 L70,119 L71,119 L90,138 L91,138 L104,151 L135,151 L134,150 L133,150 L119,136 L118,136 L104,122 L103,122 L90,109 L89,109 L75,95 L74,95 L60,81 L59,81 L51,73 L51,72 L52,71 L53,71 L69,55 L70,55 L70,54 L71,53 L72,53 L89,36 L90,36 L108,18 L109,18 L124,3 L94,3 L65,32 L64,32 L64,33 L63,34 L62,34 L23,73 L22,72 L22,3 Z M351,0 L350,1 L345,1 L344,2 L340,2 L339,3 L337,3 L336,4 L334,4 L333,5 L332,5 L331,6 L330,6 L329,7 L328,7 L327,8 L326,8 L324,10 L323,10 L321,12 L320,12 L315,17 L315,18 L312,21 L312,22 L311,23 L311,24 L310,25 L310,26 L309,27 L309,29 L308,30 L308,33 L307,34 L307,48 L308,49 L308,52 L309,53 L309,55 L311,57 L311,58 L312,59 L312,60 L315,63 L315,64 L319,68 L320,68 L323,71 L324,71 L325,72 L326,72 L328,74 L329,74 L330,75 L331,75 L332,76 L333,76 L334,77 L335,77 L336,78 L337,78 L338,79 L340,79 L341,80 L343,80 L344,81 L345,81 L346,82 L348,82 L349,83 L352,83 L353,84 L355,84 L356,85 L359,85 L360,86 L363,86 L364,87 L367,87 L368,88 L371,88 L372,89 L375,89 L376,90 L378,90 L379,91 L380,91 L381,92 L383,92 L384,93 L386,93 L387,94 L388,94 L390,96 L391,96 L396,101 L396,102 L397,103 L397,104 L398,105 L398,109 L399,110 L399,112 L398,113 L398,117 L397,118 L397,120 L396,121 L396,122 L388,130 L387,130 L386,131 L385,131 L384,132 L382,132 L381,133 L378,133 L377,134 L371,134 L370,135 L361,135 L360,134 L354,134 L353,133 L350,133 L349,132 L347,132 L346,131 L345,131 L344,130 L342,130 L341,129 L340,129 L338,127 L337,127 L334,124 L333,124 L330,121 L330,120 L327,117 L327,116 L325,114 L325,112 L324,111 L324,110 L323,109 L323,106 L322,105 L322,103 L302,103 L301,104 L301,107 L302,108 L302,113 L303,114 L303,116 L304,117 L304,119 L305,120 L305,121 L306,122 L306,123 L307,124 L307,125 L308,126 L308,127 L311,130 L311,131 L316,136 L316,137 L317,137 L322,142 L323,142 L325,144 L326,144 L327,145 L328,145 L329,146 L330,146 L331,147 L332,147 L333,148 L334,148 L335,149 L337,149 L338,150 L340,150 L341,151 L344,151 L345,152 L348,152 L349,153 L357,153 L358,154 L372,154 L373,153 L381,153 L382,152 L386,152 L387,151 L390,151 L391,150 L393,150 L394,149 L395,149 L396,148 L398,148 L400,146 L401,146 L402,145 L403,145 L406,142 L407,142 L412,137 L412,136 L414,134 L414,133 L415,132 L415,131 L416,130 L416,129 L417,128 L417,127 L418,126 L418,123 L419,122 L419,119 L420,118 L420,106 L419,105 L419,101 L418,100 L418,97 L417,96 L417,95 L416,94 L416,93 L415,92 L415,91 L412,88 L412,87 L408,83 L407,83 L405,81 L404,81 L402,79 L401,79 L400,78 L399,78 L397,76 L395,76 L394,75 L393,75 L392,74 L391,74 L390,73 L388,73 L387,72 L385,72 L384,71 L382,71 L381,70 L378,70 L377,69 L374,69 L373,68 L370,68 L369,67 L366,67 L365,66 L363,66 L362,65 L360,65 L359,64 L356,64 L355,63 L353,63 L352,62 L350,62 L349,61 L347,61 L346,60 L345,60 L344,59 L342,59 L341,58 L340,58 L338,56 L337,56 L335,54 L334,54 L332,52 L332,51 L330,49 L330,48 L329,47 L329,44 L328,43 L328,39 L329,38 L329,34 L330,33 L330,32 L332,30 L332,29 L336,25 L337,25 L338,24 L339,24 L340,23 L341,23 L342,22 L343,22 L344,21 L347,21 L348,20 L352,20 L353,19 L367,19 L368,20 L371,20 L372,21 L375,21 L376,22 L377,22 L378,23 L379,23 L380,24 L381,24 L382,25 L383,25 L390,32 L390,33 L391,34 L391,35 L392,36 L392,38 L393,39 L393,42 L394,43 L394,48 L414,48 L414,37 L413,36 L413,33 L412,32 L412,30 L411,29 L411,27 L410,26 L410,25 L409,24 L409,23 L408,22 L408,21 L406,19 L406,18 L398,10 L397,10 L395,8 L394,8 L393,7 L392,7 L391,6 L390,6 L389,5 L388,5 L387,4 L385,4 L384,3 L382,3 L381,2 L378,2 L377,1 L372,1 L371,0 Z " fill="black" stroke="none"/>
</svg>